<?xml version="1.0" encoding="UTF-8"?>
<svg width="68px" height="71px" viewBox="0 0 68 71" version="1.1" xmlns="http://www.w3.org/2000/svg" xmlns:xlink="http://www.w3.org/1999/xlink">
    <!-- Generator: Sketch 40.1 (33804) - http://www.bohemiancoding.com/sketch -->
    <title>Checked Heart Icon</title>
    <desc>Created with Sketch.</desc>
    <defs>
        <path d="M32.937782,0.553345972 L12.3041327,18.5965498 L2.2414218,8.91927962 C1.7731564,8.46841706 1.01162085,8.47325118 0.54335545,8.92604739 C0.0750900474,9.3814218 0.0750900474,10.115564 0.54335545,10.5661043 L11.4120758,21.01909 C11.6125308,21.2098768 11.8664834,21.3207393 12.1284929,21.3474882 C12.4578578,21.381327 12.8017251,21.2846445 13.0659905,21.0516398 L34.5462559,2.26784834 C35.0386919,1.83793365 35.0783318,1.10314692 34.6345592,0.631336493 C34.3976872,0.378995261 34.0731564,0.250729858 33.7466919,0.250729858 C33.4585782,0.250729858 33.1691754,0.350957346 32.937782,0.553345972 L32.937782,0.553345972 Z" id="path-1"></path>
    </defs>
    <g id="Page-1" stroke="none" stroke-width="1" fill="none" fill-rule="evenodd">
        <g id="Landing-page" transform="translate(-94.000000, -2612.000000)">
            <g id="Section-4" transform="translate(0.000000, 2351.000000)">
                <g id="Screening-process" transform="translate(94.000000, 170.000000)">
                    <g id="Column-1" transform="translate(0.000000, 91.000000)">
                        <g id="Checked-Heart-Icon">
                            <g id="Page-1">
                                <path d="M50.6624493,21.1782294 L30.0294445,39.2217555 L19.9660891,29.5444853 C19.4987905,29.093945 18.7366104,29.0981346 18.2689896,29.5512531 C17.8000796,30.007272 17.8000796,30.7410919 18.268345,31.1916322 L29.1370654,41.6439735 C29.3371981,41.8360493 29.5911507,41.945945 29.8538047,41.9730161 C30.1828474,42.0071773 30.5263924,41.909528 30.7906578,41.67749 L52.2709232,22.893054 C52.7636815,22.4631393 52.8033213,21.7289972 52.3592265,21.2562199 C51.9141649,20.781509 51.1564967,20.746381 50.6624493,21.1782294" id="Fill-1" fill="#9E95F1"></path>
                                <g id="Group-5" transform="translate(17.725118, 20.625592)">
                                    <mask id="mask-2" fill="white">
                                        <use xlink:href="#path-1"></use>
                                    </mask>
                                    <g id="Clip-4"></g>
                                    <polygon id="Fill-3" fill="#9E95F1" mask="url(#mask-2)" points="-930.407583 2952.98305 186.422483 3068.05678 775.44364 -2045.20258 -341.386427 -2160.27663"></polygon>
                                </g>
                                <g id="Group-10" fill="#9E95F1">
                                    <path d="M14.8637365,0.664047393 C6.96993555,2.41690047 3.01562275,9.97650237 2.59118673,10.8182844 C-0.121723223,16.1989858 0.0877554502,21.4462654 0.230523223,24.2104171 C0.707490047,33.4658294 5.01469384,39.7817725 6.88549953,42.4137915 C9.39086445,45.9385118 12.0280398,48.2524455 13.9162483,49.6730332 C16.739054,51.458436 20.5322294,54.391782 23.8764758,59.1414692 C28.1285706,65.1802559 29.19949,70.6631185 29.8192246,70.4320474 C30.5420872,70.1626256 29.5662389,61.1901706 25.6003242,53.0098673 C24.5152246,50.7716682 23.292836,48.7593839 22.9737839,48.2521232 C20.3259735,44.0383791 18.7800209,42.7083507 16.2533858,38.9648057 C15.2362863,37.4581706 13.7796038,35.1316682 12.2671678,32.0014123 C12.2594332,31.9885213 12.2529877,31.9807867 12.2549213,31.9698294 C11.8710919,31.1022654 11.5536512,30.1812038 11.3090445,29.2150237 C9.16559431,20.7459621 13.3529118,11.8627773 20.6598502,9.37803791 C26.7859735,7.29517536 33.1608929,10.3696777 36.3269213,16.4081422 C36.2125137,15.5879526 36.0536322,14.7671185 35.8473763,13.9524076 C33.7757934,5.76694787 24.1919829,-1.40721327 14.8637365,0.664047393" id="Fill-6"></path>
                                    <path d="M37.2692531,16.5376645 C36.7835848,16.049418 38.5061441,11.7850768 41.6032057,8.81305782 C44.4198882,6.11013839 47.4115659,5.39887773 49.3242673,4.94382559 C51.6852531,4.38242275 54.8570825,3.62797725 58.5058787,5.19745592 C59.079528,5.44431848 61.89331,6.70666919 64.3274521,10.0141763 C64.8517934,10.7270483 66.7238882,13.3887166 67.5369877,17.5441289 C68.3388076,21.6421763 67.6668645,24.9229346 67.1341441,27.3980057 C65.7225801,33.9533991 62.5378597,38.1152569 61.2996796,39.6956929 C60.2178028,41.076963 59.0511678,42.1862332 56.7178976,44.405418 C55.9998692,45.0879962 53.2353953,47.6700626 48.4679829,51.3491526 C47.2165896,52.3146882 39.2196607,58.4543469 36.6385611,61.8959204 C36.6247033,61.91429 36.565727,61.9926028 36.4951488,62.0876739 C36.1680398,62.5288682 35.6868834,63.2040341 33.152836,66.7532474 C33.0284379,66.9275981 30.9207602,69.8799583 30.7976512,70.0520531 C30.9433194,68.4509915 31.283964,66.1054749 32.1873005,63.4834464 C34.123528,57.8636171 37.3056701,54.8555033 41.6634711,50.564091 C51.4142199,40.9612664 57.4246464,34.412963 58.8436227,28.833418 C59.737291,25.3202995 59.4511109,21.7185555 59.4511109,21.7185555 C59.3566844,20.5992948 59.2074711,18.9743848 58.4565706,17.0684512 C58.1987507,16.4135886 57.4420493,14.6027261 55.9686085,13.1692474 C52.6814047,9.97131374 48.1183147,10.9229915 47.0525517,11.1453611 C44.4482483,11.6883943 42.2960967,13.1196171 40.7936512,14.1228588 C38.337272,15.7632379 37.5389972,16.8083754 37.2692531,16.5376645" id="Fill-8"></path>
                                </g>
                            </g>
                        </g>
                    </g>
                </g>
            </g>
        </g>
    </g>
</svg>