<?xml version="1.0" encoding="UTF-8"?>
<svg width="99px" height="99px" viewBox="0 0 99 99" version="1.1" xmlns="http://www.w3.org/2000/svg" xmlns:xlink="http://www.w3.org/1999/xlink">
    <!-- Generator: Sketch 40.1 (33804) - http://www.bohemiancoding.com/sketch -->
    <title>Clock Icon</title>
    <desc>Created with Sketch.</desc>
    <defs>
        <polygon id="path-1" points="0.000147046675 98.5226337 98.6684659 98.5226337 98.6684659 0.219496708 0.000147046675 0.219496708 0.000147046675 98.5226337"></polygon>
    </defs>
    <g id="Page-1" stroke="none" stroke-width="1" fill="none" fill-rule="evenodd">
        <g id="Landing-page" transform="translate(-210.000000, -946.000000)">
            <g id="Section-2" transform="translate(0.000000, 800.000000)">
                <g id="Column-1" transform="translate(93.000000, 146.000000)">
                    <g id="Clock-Icon" transform="translate(117.000000, 0.000000)">
                        <path d="M58.2487171,59.1363979 C56.3893119,59.5477025 55.4574036,61.3222086 55.3577794,61.5196202 C54.718494,62.7824679 54.7677546,64.014184 54.8015754,64.6628218 C54.9136985,66.8350811 55.9286881,68.3173156 56.3690929,68.9351881 C56.9594853,69.7625584 57.5807575,70.3053486 58.0255737,70.639007 C58.6905923,71.0580029 59.5839009,71.7461963 60.372071,72.861077 C61.3734589,74.2784844 61.6260116,75.5651387 61.7719554,75.5109329 C61.9421619,75.447937 61.7124015,73.34197 60.7779199,71.4220605 C60.5224263,70.8968506 60.2342148,70.4243815 60.159221,70.3053486 C59.5353755,69.3164597 59.1714349,69.0044103 58.5758959,68.1257642 C58.3365774,67.7719617 57.9932235,67.2258753 57.6370029,66.4911675 C57.6351648,66.4882374 57.6336943,66.4864062 57.634062,66.4838424 C57.5436283,66.2802045 57.4690021,66.064114 57.4112862,65.8374021 C56.9061809,63.8497354 57.8928641,61.7646449 59.6140454,61.1815667 C61.0573086,60.692616 62.5590227,61.4145049 63.304917,62.8315461 C63.278081,62.6388959 63.2405841,62.4462457 63.1920587,62.2550605 C62.7038637,60.3340523 60.4463296,58.6503774 58.2487171,59.1363979" id="Fill-1" fill="#6DCD62"></path>
                        <path d="M63.5268839,62.8619453 C63.4125551,62.7473074 63.818404,61.7466984 64.5477555,61.0489823 C65.2113036,60.4146284 65.9160248,60.247616 66.3667228,60.1410358 C66.9229269,60.009184 67.6702916,59.8319165 68.5297794,60.2003691 C68.6646948,60.2582374 69.3275076,60.5545379 69.9009897,61.3309988 C70.0245089,61.4980111 70.4656489,62.1228424 70.6571772,63.0981798 C70.8461322,64.0599658 70.6876894,64.8298342 70.5623321,65.4110811 C70.229639,66.9493527 69.479701,67.9261551 69.1878133,68.2971716 C68.9330549,68.6213074 68.6580777,68.8817148 68.1084907,69.4025296 C67.939387,69.5629494 67.2879703,70.1687354 66.1649013,71.032365 C65.8700727,71.259077 63.9864048,72.6999247 63.3783668,73.5075173 C63.3750582,73.5119123 63.3610888,73.5302251 63.3445461,73.5525667 C63.2673466,73.6562169 63.1541206,73.8148053 62.5571111,74.6476695 C62.5277018,74.6886901 62.0314192,75.3816449 62.0023775,75.4219329 C62.0365659,75.0461551 62.1170739,74.4956737 62.3295564,73.880365 C62.7857687,72.561114 63.5353391,71.8553403 64.5620925,70.8481387 C66.8589616,68.5942045 68.2750211,67.0573979 68.6091846,65.7480358 C68.819829,64.9232292 68.7525551,64.0779123 68.7525551,64.0779123 C68.7301305,63.8153074 68.6948393,63.4336695 68.5180157,62.986472 C68.4573589,62.8330111 68.2790648,62.4077889 67.9320347,62.0712004 C67.1574663,61.3207436 66.0825551,61.5441593 65.8314729,61.5965337 C65.2179207,61.7239905 64.7109773,62.0598465 64.3569624,62.2953486 C63.7783337,62.6802827 63.5904816,62.9256737 63.5268839,62.8619453" id="Fill-3" fill="#6DCD62"></path>
                        <g id="Group-7" transform="translate(0.000000, 0.146868)">
                            <mask id="mask-2" fill="white">
                                <use xlink:href="#path-1"></use>
                            </mask>
                            <g id="Clip-6"></g>
                            <path d="M49.3343065,95.2458588 C23.9452276,95.2458588 3.28884593,74.6659823 3.28884593,49.370937 C3.28884593,24.0758918 23.9452276,3.49638148 49.3343065,3.49638148 C74.7233854,3.49638148 95.379767,24.0758918 95.379767,49.370937 C95.379767,74.6659823 74.7233854,95.2458588 49.3343065,95.2458588 M49.3343065,0.219496708 C22.1314069,0.219496708 0.000147046675,22.2687889 0.000147046675,49.370937 C0.000147046675,76.4730852 22.1314069,98.5227436 49.3343065,98.5227436 C76.5372061,98.5227436 98.6684659,76.4730852 98.6684659,49.370937 C98.6684659,22.2687889 76.5372061,0.219496708 49.3343065,0.219496708" id="Fill-5" fill="#74C163" mask="url(#mask-2)"></path>
                        </g>
                        <path d="M49.3343065,52.5964362 C47.5204857,52.5964362 46.04524,51.1266543 46.04524,49.3195514 C46.04524,47.5124486 47.5204857,46.0430329 49.3343065,46.0430329 C51.1481272,46.0430329 52.623373,47.5124486 52.623373,49.3195514 C52.623373,51.1266543 51.1481272,52.5964362 49.3343065,52.5964362 M50.9786559,42.9987202 L50.9786559,26.3820905 C50.9786559,25.4763416 50.2419521,24.7438313 49.3343065,24.7438313 C48.4266609,24.7438313 47.689957,25.4763416 47.689957,26.3820905 L47.689957,42.9987202 C45.3890442,43.5949835 43.5884577,45.3892675 42.9899777,47.6812922 L31.2449922,47.6812922 C30.3373466,47.6812922 29.6006427,48.4138025 29.6006427,49.3195514 C29.6006427,50.2256667 30.3373466,50.958177 31.2449922,50.958177 L42.9899777,50.958177 C43.7248435,53.776144 46.2790442,55.873321 49.3343065,55.873321 C52.961948,55.873321 55.9120719,52.9341235 55.9120719,49.3195514 C55.9120719,46.2737737 53.8074663,43.7312305 50.9786559,42.9987202" id="Fill-8" fill="#6DCD62"></path>
                        <path d="M49.3343065,16.551949 C50.2419521,16.551949 50.9786559,15.8194387 50.9786559,14.9136897 L50.9786559,13.2750642 C50.9786559,12.3693152 50.2419521,11.6368049 49.3343065,11.6368049 C48.4266609,11.6368049 47.689957,12.3693152 47.689957,13.2750642 L47.689957,14.9136897 C47.689957,15.8194387 48.4266609,16.551949 49.3343065,16.551949" id="Fill-10" fill="#6DCD62"></path>
                        <path d="M49.3343065,82.0874103 C48.4266609,82.0874103 47.689957,82.8199206 47.689957,83.7256695 L47.689957,85.3642951 C47.689957,86.270044 48.4266609,87.0025543 49.3343065,87.0025543 C50.2419521,87.0025543 50.9786559,86.270044 50.9786559,85.3642951 L50.9786559,83.7256695 C50.9786559,82.8199206 50.2419521,82.0874103 49.3343065,82.0874103" id="Fill-12" fill="#6DCD62"></path>
                        <path d="M85.5128249,47.6812922 L83.8684754,47.6812922 C82.9604622,47.6812922 82.2237584,48.4138025 82.2237584,49.3195514 C82.2237584,50.2256667 82.9604622,50.958177 83.8684754,50.958177 L85.5128249,50.958177 C86.4204705,50.958177 87.1571743,50.2256667 87.1571743,49.3195514 C87.1571743,48.4138025 86.4204705,47.6812922 85.5128249,47.6812922" id="Fill-14" fill="#6DCD62"></path>
                        <path d="M14.8002846,47.6812922 L13.1559352,47.6812922 C12.2479219,47.6812922 11.5112181,48.4138025 11.5112181,49.3195514 C11.5112181,50.2256667 12.2479219,50.958177 13.1559352,50.958177 L14.8002846,50.958177 C15.7079302,50.958177 16.444634,50.2256667 16.444634,49.3195514 C16.444634,48.4138025 15.7079302,47.6812922 14.8002846,47.6812922" id="Fill-16" fill="#6DCD62"></path>
                        <path d="M73.7531714,22.6729514 L72.5903998,23.8314165 C71.9474382,24.4719967 71.9474382,25.5074 72.5903998,26.1479802 C72.9113292,26.4673547 73.3322503,26.6281407 73.7531714,26.6281407 C74.1740925,26.6281407 74.5950136,26.4673547 74.915943,26.1479802 L76.078347,24.9895152 C76.7213086,24.348935 76.7213086,23.3135317 76.078347,22.6729514 C75.4353854,22.0323712 74.396133,22.0338362 73.7531714,22.6729514" id="Fill-18" fill="#6DCD62"></path>
                        <path d="M23.752817,72.4897309 L22.5900454,73.6481959 C21.9470838,74.2887761 21.9470838,75.3241794 22.5900454,75.9647597 C22.9109748,76.2841342 23.3318959,76.4449202 23.752817,76.4449202 C24.1737381,76.4449202 24.5946592,76.2841342 24.9155886,75.9647597 L26.0779926,74.8062947 C26.7209542,74.1657144 26.7209542,73.1303111 26.0779926,72.4897309 C25.435031,71.8491506 24.3943081,71.8506156 23.752817,72.4897309" id="Fill-20" fill="#6DCD62"></path>
                        <path d="M74.915796,72.4897309 C74.2728344,71.8491506 73.233582,71.8491506 72.5906204,72.4897309 C71.9476588,73.1303111 71.9476588,74.1657144 72.5906204,74.8062947 L73.7530244,75.9647597 C74.0739537,76.2841342 74.4948748,76.4449202 74.915796,76.4449202 C75.3367171,76.4449202 75.7576382,76.2841342 76.0785675,75.9647597 C76.7215291,75.3241794 76.7215291,74.2887761 76.0785675,73.6481959 L74.915796,72.4897309 Z" id="Fill-22" fill="#6DCD62"></path>
                        <path d="M24.9154783,22.6729514 C24.2725167,22.0323712 23.2332644,22.0323712 22.5903028,22.6729514 C21.9473412,23.3135317 21.9473412,24.348935 22.5903028,24.9895152 L23.7527067,26.1479802 C24.0736361,26.4673547 24.4945572,26.6281407 24.9154783,26.6281407 C25.3363994,26.6281407 25.7573205,26.4673547 26.0782499,26.1479802 C26.7212115,25.5074 26.7212115,24.4719967 26.0782499,23.8314165 L24.9154783,22.6729514 Z" id="Fill-24" fill="#6DCD62"></path>
                    </g>
                </g>
            </g>
        </g>
    </g>
</svg>