<?xml version="1.0" encoding="UTF-8"?>
<svg width="442px" height="138px" viewBox="0 0 442 138" version="1.1" xmlns="http://www.w3.org/2000/svg" xmlns:xlink="http://www.w3.org/1999/xlink">
    <!-- Generator: Sketch 40.1 (33804) - http://www.bohemiancoding.com/sketch -->
    <title>cNanny Logo color</title>
    <desc>Created with Sketch.</desc>
    <defs></defs>
    <g id="Page-1" stroke="none" stroke-width="1" fill="none" fill-rule="evenodd">
        <g id="Landing-page" transform="translate(-93.000000, -55.000000)">
            <g id="Section-1">
                <g id="cNanny-Logo-color" transform="translate(93.000000, 55.000000)">
                    <g id="cNanny-Logo-Hire-with-trust-Copy">
                        <g id="Layer_1">
                            <path d="M90,121.49 L74,121.49 L74,134.82 C74.080315,135.667126 73.6737104,136.486607 72.9505577,136.935074 C72.227405,137.38354 71.312595,137.38354 70.5894423,136.935074 C69.8662896,136.486607 69.459685,135.667126 69.54,134.82 L69.54,103.56 C69.459685,102.712874 69.8662896,101.893393 70.5894423,101.444926 C71.312595,100.99646 72.227405,100.99646 72.9505577,101.444926 C73.6737104,101.893393 74.080315,102.712874 74,103.56 L74,117.1 L90,117.1 L90,103.56 C89.919685,102.712874 90.3262896,101.893393 91.0494423,101.444926 C91.772595,100.99646 92.687405,100.99646 93.4105577,101.444926 C94.1337104,101.893393 94.540315,102.712874 94.46,103.56 L94.46,134.82 C94.540315,135.667126 94.1337104,136.486607 93.4105577,136.935074 C92.687405,137.38354 91.772595,137.38354 91.0494423,136.935074 C90.3262896,136.486607 89.919685,135.667126 90,134.82 L90,121.49 Z" id="Shape" fill="#6DCD62"></path>
                            <path d="M106.46,101 C108.116854,101 109.46,102.343146 109.46,104 C109.46,105.656854 108.116854,107 106.46,107 C104.803146,107 103.46,105.656854 103.46,104 C103.46,102.343146 104.803146,101 106.46,101 L106.46,101 Z M108.67,115 C108.725228,114.184093 108.321269,113.405388 107.622447,112.980651 C106.923625,112.555914 106.046375,112.555914 105.347553,112.980651 C104.648731,113.405388 104.244772,114.184093 104.3,115 L104.3,134.89 C104.244772,135.705907 104.648731,136.484612 105.347553,136.909349 C106.046375,137.334086 106.923625,137.334086 107.622447,136.909349 C108.321269,136.484612 108.725228,135.705907 108.67,134.89 L108.67,115 Z" id="Shape" fill="#6DCD62"></path>
                            <path d="M128.05,116.84 C123.73,116.84 121.91,121.84 121.91,128.21 L121.91,134.88 C121.965228,135.695907 121.561269,136.474612 120.862447,136.899349 C120.163625,137.324086 119.286375,137.324086 118.587553,136.899349 C117.888731,136.474612 117.484772,135.695907 117.54,134.88 L117.54,115 C117.484772,114.184093 117.888731,113.405388 118.587553,112.980651 C119.286375,112.555914 120.163625,112.555914 120.862447,112.980651 C121.561269,113.405388 121.965228,114.184093 121.91,115 L121.91,118.31 C123.06,114.07 125.22,112.37 128.15,112.37 C129.78,112.37 132.47,112.73 132.09,115.26 C131.85,116.76 130.6,117.07 129.09,116.91 C128.745555,116.860853 128.397925,116.837454 128.05,116.84 L128.05,116.84 Z" id="Shape" fill="#6DCD62"></path>
                            <path d="M156.8,126.71 L140.29,126.71 C140.585991,130.47262 143.766615,133.350536 147.54,133.27 C149.749704,133.452409 151.900659,132.499359 153.25,130.74 C153.891996,129.765701 155.198372,129.489267 156.18,130.12 C157.052895,130.85579 157.217935,132.137018 156.56,133.07 C154.414286,135.961679 150.989136,137.620094 147.39,137.51 C141.01,137.51 135.92,132.51 135.92,124.85 C135.92,117.19 141.01,112.35 147.39,112.35 C153.77,112.35 158.52,117.21 158.52,124.85 C158.538933,125.324835 158.368273,125.787709 158.045635,126.136609 C157.722997,126.485508 157.274863,126.691794 156.8,126.71 L156.8,126.71 Z M154.21,123 C153.68,119 150.99,116.54 147.4,116.54 C143.697079,116.4761 140.585145,119.307521 140.3,123 L154.21,123 Z" id="Shape" fill="#6DCD62"></path>
                            <path d="M204.26,135.23 C203.78,136.563333 203.013333,137.23 201.96,137.23 L201.86,137.23 C200.713709,137.173515 199.749033,136.352514 199.51,135.23 L194,118.49 L188.67,135.23 C188.24,136.57 187.42,137.23 186.37,137.23 L186.27,137.23 C185.123709,137.173515 184.159033,136.352514 183.92,135.23 L176.92,115.65 C176.514069,114.438436 177.155082,113.125251 178.36,112.7 C178.922785,112.52663 179.532324,112.595157 180.042565,112.889162 C180.552805,113.183166 180.917767,113.676155 181.05,114.25 L186.27,130 L191.27,114.76 C191.514881,113.496649 192.623142,112.585693 193.91,112.59 L194.15,112.59 C195.45,112.59 196.26,113.31 196.74,114.76 L201.74,130 L206.87,114.24 C207.014047,113.662485 207.388988,113.16949 207.907048,112.876427 C208.425109,112.583364 209.040805,112.515962 209.61,112.69 C210.814918,113.115251 211.455931,114.428436 211.05,115.64 L204.26,135.23 Z" id="Shape" fill="#6DCD62"></path>
                            <path d="M220.2,101 C221.856854,101 223.2,102.343146 223.2,104 C223.2,105.656854 221.856854,107 220.2,107 C218.543146,107 217.2,105.656854 217.2,104 C217.2,102.343146 218.543146,101 220.2,101 L220.2,101 Z M222.41,115 C222.465228,114.184093 222.061269,113.405388 221.362447,112.980651 C220.663625,112.555914 219.786375,112.555914 219.087553,112.980651 C218.388731,113.405388 217.984772,114.184093 218.04,115 L218.04,134.89 C217.984772,135.705907 218.388731,136.484612 219.087553,136.909349 C219.786375,137.334086 220.663625,137.334086 221.362447,136.909349 C222.061269,136.484612 222.465228,135.705907 222.41,134.89 L222.41,115 Z" id="Shape" fill="#6DCD62"></path>
                            <path d="M230.56,116.84 C229.455431,116.84 228.56,115.944569 228.56,114.84 C228.56,113.735431 229.455431,112.84 230.56,112.84 L233,112.84 L233,105.84 C232.944772,105.024093 233.348731,104.245388 234.047553,103.820651 C234.746375,103.395914 235.623625,103.395914 236.322447,103.820651 C237.021269,104.245388 237.425228,105.024093 237.37,105.84 L237.37,112.84 L240.54,112.84 C241.644569,112.84 242.54,113.735431 242.54,114.84 C242.54,115.944569 241.644569,116.84 240.54,116.84 L237.37,116.84 L237.37,134.84 C237.425228,135.655907 237.021269,136.434612 236.322447,136.859349 C235.623625,137.284086 234.746375,137.284086 234.047553,136.859349 C233.348731,136.434612 232.944772,135.655907 233,134.84 L233,116.84 L230.56,116.84 Z" id="Shape" fill="#6DCD62"></path>
                            <path d="M269.34,134.87 C269.395228,135.685907 268.991269,136.464612 268.292447,136.889349 C267.593625,137.314086 266.716375,137.314086 266.017553,136.889349 C265.318731,136.464612 264.914772,135.685907 264.97,134.87 L264.97,123.35 C264.97,119.35 262.76,116.94 259.69,116.94 C256.62,116.94 252.88,118.8 252.88,123.94 L252.88,134.84 C252.935228,135.655907 252.531269,136.434612 251.832447,136.859349 C251.133625,137.284086 250.256375,137.284086 249.557553,136.859349 C248.858731,136.434612 248.454772,135.655907 248.51,134.84 L248.51,101.84 C248.454772,101.024093 248.858731,100.245388 249.557553,99.8206507 C250.256375,99.3959138 251.133625,99.3959138 251.832447,99.8206507 C252.531269,100.245388 252.935228,101.024093 252.88,101.84 L252.88,116.46 C254.22,113.57 257.82,112.33 260.27,112.33 C265.88,112.33 269.39,116.26 269.34,123.02 L269.34,134.87 Z" id="Shape" fill="#6DCD62"></path>
                            <path d="M291.18,116.84 C290.075431,116.84 289.18,115.944569 289.18,114.84 C289.18,113.735431 290.075431,112.84 291.18,112.84 L293.58,112.84 L293.58,105.84 C293.524772,105.024093 293.928731,104.245388 294.627553,103.820651 C295.326375,103.395914 296.203625,103.395914 296.902447,103.820651 C297.601269,104.245388 298.005228,105.024093 297.95,105.84 L297.95,112.84 L301.12,112.84 C302.224569,112.84 303.12,113.735431 303.12,114.84 C303.12,115.944569 302.224569,116.84 301.12,116.84 L297.95,116.84 L297.95,134.84 C298.005228,135.655907 297.601269,136.434612 296.902447,136.859349 C296.203625,137.284086 295.326375,137.284086 294.627553,136.859349 C293.928731,136.434612 293.524772,135.655907 293.58,134.84 L293.58,116.84 L291.18,116.84 Z" id="Shape" fill="#6DCD62"></path>
                            <path d="M319.59,116.84 C315.27,116.84 313.45,121.84 313.45,128.21 L313.45,134.88 C313.505228,135.695907 313.101269,136.474612 312.402447,136.899349 C311.703625,137.324086 310.826375,137.324086 310.127553,136.899349 C309.428731,136.474612 309.024772,135.695907 309.08,134.88 L309.08,115 C309.024772,114.184093 309.428731,113.405388 310.127553,112.980651 C310.826375,112.555914 311.703625,112.555914 312.402447,112.980651 C313.101269,113.405388 313.505228,114.184093 313.45,115 L313.45,118.31 C314.6,114.07 316.76,112.37 319.69,112.37 C321.32,112.37 324.01,112.73 323.63,115.26 C323.39,116.76 322.14,117.07 320.63,116.91 C320.285555,116.860853 319.937925,116.837454 319.59,116.84 L319.59,116.84 Z" id="Shape" fill="#6DCD62"></path>
                            <path d="M345,133.37 C343.628361,135.9529 340.924111,137.548408 338,137.5 C332.43,137.5 329.36,133.57 329.36,126.8 L329.36,115 C329.304772,114.184093 329.708731,113.405388 330.407553,112.980651 C331.106375,112.555914 331.983625,112.555914 332.682447,112.980651 C333.381269,113.405388 333.785228,114.184093 333.73,115 L333.73,126.5 C333.73,130.5 335.6,132.91 338.67,132.91 C341.74,132.91 345,131 345,125.91 L345,115 C344.944772,114.184093 345.348731,113.405388 346.047553,112.980651 C346.746375,112.555914 347.623625,112.555914 348.322447,112.980651 C349.021269,113.405388 349.425228,114.184093 349.37,115 L349.37,134.89 C349.425228,135.705907 349.021269,136.484612 348.322447,136.909349 C347.623625,137.334086 346.746375,137.334086 346.047553,136.909349 C345.348731,136.484612 344.944772,135.705907 345,134.89 L345,133.37 Z" id="Shape" fill="#6DCD62"></path>
                            <path d="M365.47,133.37 C367.73,133.37 369.41,132.08 369.41,130.17 C369.41,128.41 368.11,127.54 366.41,127.17 L363.34,126.39 C359.55,125.31 357.34,123.29 357.34,119.47 C357.34,115.47 360.65,112.39 365.16,112.39 C368.09,112.39 370.92,113.53 372.21,116.32 C372.374809,116.65577 372.457089,117.02603 372.45,117.4 C372.45046,118.547807 371.537347,119.487515 370.39,119.52 C369.730342,119.468545 369.138827,119.094168 368.81,118.52 C368.066606,117.269389 366.714825,116.507822 365.26,116.52 C364.369285,116.436069 363.484108,116.72885 362.819112,117.327346 C362.154116,117.925843 361.770033,118.775396 361.76,119.67 C361.76,121.22 363.15,122.1 364.59,122.46 L367.9,123.34 C372.56,124.58 373.71,127.63 373.71,130.34 C373.71,134.84 369.71,137.57 365.02,137.57 C361.343088,137.652319 358.055742,135.290813 356.96,131.78 C356.906729,131.543194 356.87328,131.302361 356.86,131.06 C356.933922,130.086793 357.680651,129.299035 358.648518,129.173212 C359.616384,129.04739 360.539706,129.618041 360.86,130.54 C361.640676,132.36581 363.488565,133.500197 365.47,133.37 L365.47,133.37 Z" id="Shape" fill="#6DCD62"></path>
                            <path d="M380.25,116.84 C379.145431,116.84 378.25,115.944569 378.25,114.84 C378.25,113.735431 379.145431,112.84 380.25,112.84 L382.65,112.84 L382.65,105.84 C382.594772,105.024093 382.998731,104.245388 383.697553,103.820651 C384.396375,103.395914 385.273625,103.395914 385.972447,103.820651 C386.671269,104.245388 387.075228,105.024093 387.02,105.84 L387.02,112.84 L390.19,112.84 C391.294569,112.84 392.19,113.735431 392.19,114.84 C392.19,115.944569 391.294569,116.84 390.19,116.84 L387,116.84 L387,134.84 C387.055228,135.655907 386.651269,136.434612 385.952447,136.859349 C385.253625,137.284086 384.376375,137.284086 383.677553,136.859349 C382.978731,136.434612 382.574772,135.655907 382.63,134.84 L382.63,116.84 L380.25,116.84 Z" id="Shape" fill="#6DCD62"></path>
                            <path d="M22.2,21.52 C10.49,23.83 4.63,33.81 4,34.92 C4.2144066e-13,42.02 0.29,48.92 0.5,52.59 C1.21,64.8 7.6,73.13 10.37,76.59 C13.3348273,80.2992959 16.8526357,83.5304181 20.8,86.17 C26.4905658,89.3305434 31.5080745,93.5735145 35.57,98.66 C41.88,106.66 43.47,113.86 44.38,113.56 C45.45,113.2 44,101.37 38.12,90.56 C36.9294671,88.400637 35.6277179,86.304487 34.22,84.28 C30.29,78.72 28,76.97 24.22,72.03 C22.0200712,69.1207823 20.0443838,66.0486052 18.31,62.84 L18.31,62.84 C17.7328482,61.6755607 17.2642011,60.4604257 16.91,59.21 C13.75,48 20,36.3 30.8,33 C39.750947,30.3634523 49.3425953,34.204246 54,42.29 C53.8292699,41.1965987 53.5921651,40.1145992 53.29,39.05 C50.25,28.25 36,18.79 22.2,21.52 L22.2,21.52 Z" id="Shape" fill="#6DCD62"></path>
                            <path d="M55.43,42.46 C54.71,41.82 57.26,36.19 61.86,32.27 C65.1607875,29.5910795 69.1107215,27.8317202 73.31,27.17 C76.81,26.43 81.52,25.43 86.93,27.5 C90.2943192,28.8582814 93.2622937,31.0421329 95.56,33.85 C97.9001759,36.742974 99.5303642,40.1437661 100.32,43.78 C101.174459,48.0980753 100.968571,52.5589876 99.72,56.78 C98.2224544,62.8167453 95.2542207,68.3890545 91.08,73 C88.9678603,75.2331131 86.6951235,77.3086565 84.28,79.21 C83.22,80.11 79.11,83.52 72.04,88.37 C70.18,89.64 58.32,97.74 54.49,102.28 L54.28,102.53 C53.79,103.11 53.08,104 49.28,108.69 L45.79,113.04 C46.0860787,110.070919 46.778918,107.15494 47.85,104.37 C50.72,96.96 55.44,92.99 61.91,87.37 C76.37,74.7 85.29,66.06 87.39,58.7 C88.1964053,55.6393702 88.5003624,52.4680836 88.29,49.31 C88.1527366,47.1978526 87.6555828,45.1246875 86.82,43.18 C85.9738092,41.2213206 84.7152045,39.4681423 83.13,38.04 C78.25,33.82 71.49,35.04 69.91,35.37 C66.6064509,36.1142326 63.4632902,37.4453341 60.63,39.3 C57,41.44 55.83,42.82 55.43,42.46 L55.43,42.46 Z" id="Shape" fill="#9E95F1"></path>
                            <path d="M50.93,52.78 C46.72,53.5 43.7,58.32 45.04,66.14 C46.18,72.82 50.51,75.62 56.12,74.65 C59.2217885,74.1554613 62.0862441,72.6882157 64.3,70.46 C65.2001961,70.6518248 65.8672855,71.4124694 65.94,72.33 C66.44,75.25 62.13,80.33 54.53,81.59 C44.83,83.25 36.78,78.41 35.13,68.81 C33.43,58.9 40.63,48.97 50.69,47.24 C57.69,46.04 62.47,48.55 63.04,51.89 C63.4,53.98 61.83,56.07 58.16,57.13 C56.32,54 53.74,52.3 50.93,52.78 L50.93,52.78 Z" id="Shape" fill="#9E95F1"></path>
                            <path d="M110.36,25 C110.366334,26.5460522 110.679025,28.0755187 111.28,29.5 C110.45676,30.5615407 109.147278,31.1275994 107.81,31 C106.233196,31.0176391 104.730425,30.3322288 103.71,29.13 C102.57,27.87 102,25.8266667 102,23 C102,16.42 103.85,11.07 107.55,6.95 C111.25,2.83 116.183333,0.77 122.35,0.77 C132.523333,0.77 138.573333,6.77 140.5,18.77 C141.931466,13.6066581 144.819953,8.9649425 148.82,5.4 C152.548495,2.11073084 157.3685,0.328184638 162.34,0.4 C170.34,0.486666667 176.34,3.75666667 180.34,10.21 C184.34,16.6633333 186.34,25.3033333 186.34,36.13 L186.34,71.48 C186.34,76.3133333 187.246667,80.1866667 189.06,83.1 C190.873333,86.0133333 193.243333,87.47 196.17,87.47 C203.41,87.47 207.033333,79.6433333 207.04,63.99 C207.113333,63.49 207.516667,63.24 208.25,63.24 C208.834698,63.2048728 209.417336,63.3366601 209.93,63.62 C211.083333,64.54 211.66,66.58 211.66,69.74 C211.66,76.7333333 210.12,82.4 207.04,86.74 C204.344108,90.8668586 199.718713,93.3211496 194.79,93.24 C187.696667,93.24 182.746667,90.68 179.94,85.56 C177.133333,80.44 175.746667,73.2533333 175.78,64 L175.78,36.11 C175.78,16.4566667 171.31,6.63 162.37,6.63 C159.122147,6.55979022 155.93928,7.54588235 153.3,9.44 C150.770379,11.2521582 148.693136,13.6237054 147.23,16.37 C145.633151,19.4883009 144.465881,22.8084614 143.76,26.24 C142.212061,33.167795 141.473784,40.2519 141.56,47.35 L141.56,63.35 C141.56,73.6766667 140.036667,81.8566667 136.99,87.89 C133.943333,93.9233333 129.36,96.9433333 123.24,96.95 C117.113333,96.95 112.51,95.43 109.43,92.39 C106.35,89.35 104.81,85.3333333 104.81,80.34 C104.81,73.9266667 106.736667,70.72 110.59,70.72 C111.450734,70.7021426 112.297093,70.9424667 113.02,71.41 C113.789444,71.9645596 114.388637,72.723075 114.75,73.6 C114.030742,76.1380002 113.720188,78.7743373 113.83,81.41 C113.83,84.8633333 114.66,87.4666667 116.32,89.22 C117.947353,90.9560236 120.241526,91.9101084 122.62,91.84 C128.093333,91.84 130.83,84.84 130.83,70.84 L130.83,22.49 C130.83,17.6633333 129.923333,13.79 128.11,10.87 C126.641492,8.15673723 123.795081,6.47581641 120.71,6.5 C117.671501,6.45744023 114.828497,7.99440393 113.2,10.56 C111.306667,13.2666667 110.36,18.08 110.36,25 L110.36,25 Z" id="Shape" fill="#9E95F1"></path>
                            <path d="M241.2,37.73 C242.2,35.3166667 243.8,34.11 246,34.11 C247.81118,33.9676417 249.59715,34.6041891 250.91,35.86 L250.91,71.71 C250.91,76.4566667 251.603333,80.0366667 252.99,82.45 C254.376667,84.8633333 256.263333,86.07 258.65,86.07 C265.89,86.07 269.513333,77.95 269.52,61.71 C269.593333,61.21 270.17,60.96 271.25,60.96 C272.636667,60.96 273.33,63.1666667 273.33,67.58 C273.33,74.66 271.923333,80.3266667 269.11,84.58 C266.584951,88.6713612 262.065451,91.1008307 257.26,90.95 C249.473333,90.95 244.31,87.2433333 241.77,79.83 C240.489562,83.000905 238.425079,85.7948393 235.77,87.95 C233.312275,89.9196119 230.249432,90.9794191 227.1,90.95 C213.613333,90.95 206.87,81.4166667 206.87,62.35 C206.87,52.69 208.97,45.57 213.17,40.99 C217.37,36.41 222.936667,34.12 229.87,34.12 C235.19,34.1133333 238.966667,35.3166667 241.2,37.73 L241.2,37.73 Z M219.47,77.73 C220.55,81.3966667 221.783333,83.7066667 223.17,84.66 C224.829859,85.6947579 226.766438,86.1972218 228.72,86.1 C231.033333,86.1 233.556667,84.54 236.29,81.42 C239.023333,78.3 240.39,74.24 240.39,69.24 L240.39,52.1 C240.548192,48.7075088 239.550456,45.3617457 237.56,42.61 C235.673333,40.1966667 233.553333,38.99 231.2,38.99 C229.301228,38.9247614 227.404953,39.1782742 225.59,39.74 C224.010705,40.3863925 222.647723,41.4684546 221.66,42.86 C219.12,45.86 217.85,52.3566667 217.85,62.35 C217.856667,68.9233333 218.396667,74.04 219.47,77.7 L219.47,77.73 Z" id="Shape" fill="#9E95F1"></path>
                            <path d="M332.29,61 C333.676667,61 334.37,63.2066667 334.37,67.62 C334.37,74.7 332.963333,80.3666667 330.15,84.62 C327.336667,88.8733333 323.233333,90.9966667 317.84,90.99 C312.446667,90.99 308.303333,88.99 305.41,84.99 C302.516667,80.99 301.073333,75.3233333 301.08,67.99 L301.08,53.34 C301.08,43.4333333 298.766667,38.48 294.14,38.48 C290.053333,38.48 286.7,40.73 284.08,45.23 C281.46,49.73 280.15,57.2666667 280.15,67.84 L280.15,89.2 C279.376667,90.3666667 278.043333,90.95 276.15,90.95 C274.39825,91.0218852 272.705266,90.3109788 271.53,89.01 C270.270103,87.3960963 269.653672,85.3722082 269.8,83.33 L269.8,35.86 C270.566667,34.6933333 272.03,34.11 274.19,34.11 C278.19,34.11 280.19,37.2333333 280.19,43.48 C283.423333,37.2333333 288.546667,34.11 295.56,34.11 C300.566667,34.11 304.566667,35.8166667 307.56,39.23 C310.553333,42.6433333 312.013333,47.5666667 311.94,54 L311.94,71.74 C311.94,76.4866667 312.633333,80.0666667 314.02,82.48 C315.20992,84.7771091 317.614405,86.1855617 320.2,86.1 C322.933333,86.1 325.34,84.2466667 327.42,80.54 C329.5,76.8333333 330.54,70.5666667 330.54,61.74 C330.626667,61.2466667 331.21,61 332.29,61 L332.29,61 Z" id="Shape" fill="#9E95F1"></path>
                            <path d="M393.32,61 C394.706667,61 395.4,63.2066667 395.4,67.62 C395.4,74.7 393.993333,80.3666667 391.18,84.62 C388.366667,88.8733333 384.263333,90.9966667 378.87,90.99 C373.476667,90.99 369.333333,88.99 366.44,84.99 C363.546667,80.99 362.103333,75.3233333 362.11,67.99 L362.11,53.34 C362.11,43.4333333 359.796667,38.48 355.17,38.48 C351.083333,38.48 347.73,40.73 345.11,45.23 C342.49,49.73 341.18,57.2666667 341.18,67.84 L341.18,89.2 C340.406667,90.3666667 339.073333,90.95 337.18,90.95 C335.42825,91.0218852 333.735266,90.3109788 332.56,89.01 C331.300103,87.3960963 330.683672,85.3722082 330.83,83.33 L330.83,35.86 C331.596667,34.6933333 333.06,34.11 335.22,34.11 C339.22,34.11 341.22,37.2333333 341.22,43.48 C344.453333,37.2333333 349.576667,34.11 356.59,34.11 C361.596667,34.11 365.596667,35.8166667 368.59,39.23 C371.583333,42.6433333 373.053333,47.5666667 373,54 L373,71.74 C373,76.4866667 373.693333,80.0666667 375.08,82.48 C376.26992,84.7771091 378.674405,86.1855617 381.26,86.1 C383.993333,86.1 386.4,84.2466667 388.48,80.54 C390.56,76.8333333 391.6,70.5666667 391.6,61.74 C391.666667,61.2466667 392.24,61 393.32,61 L393.32,61 Z" id="Shape" fill="#9E95F1"></path>
                            <path d="M393.55,36 C394.651449,34.7318952 396.260793,34.0207046 397.94,34.06 C399.553075,33.9942946 401.115059,34.6329564 402.22,35.81 L402.22,71.66 C402.22,81.5733333 404.533333,86.5266667 409.16,86.52 C413.32,86.52 416.73,84.1466667 419.39,79.4 C422.05,74.6533333 423.383333,66.6533333 423.39,55.4 L423.39,41.73 C423.243672,39.6877918 423.860103,37.6639037 425.12,36.05 C426.221449,34.7818952 427.830793,34.0707046 429.51,34.11 C431.123075,34.0442946 432.685059,34.6829564 433.79,35.86 L433.79,99.32 C434.716667,99.2333333 436.18,99.1933333 438.18,99.2 C440.18,99.2066667 441.18,100.123333 441.18,101.95 L440.49,103.82 C437.563333,103.82 435.33,103.863333 433.79,103.95 L433.79,110.2 C433.79,118.773333 432,125.54 428.42,130.5 C425.190439,135.266268 419.755444,138.059147 414,137.91 C410.547068,137.941687 407.199932,136.719378 404.58,134.47 C401.846667,132.176667 400.48,128.576667 400.48,123.67 C400.48,117.343333 402.56,112.306667 406.72,108.56 C410.88,104.813333 416.426667,102.19 423.36,100.69 L423.36,81.2 C420.126667,87.6933333 414.926667,90.94 407.76,90.94 C402.826667,90.94 398.936667,89.2333333 396.09,85.82 C393.243333,82.4066667 391.816667,77.4933333 391.81,71.08 L391.81,41.73 C391.653832,39.6697004 392.274562,37.6255711 393.55,36 L393.55,36 Z M406.38,124 C406.38,126.913333 407.113333,129.14 408.58,130.68 C409.939549,132.179115 411.876351,133.023736 413.9,133 C415.801167,133.071343 417.645935,132.346483 418.99,131 C421.916667,128.166667 423.38,119.63 423.38,105.39 C412.046667,108.163333 406.38,114.366667 406.38,124 L406.38,124 Z" id="Shape" fill="#9E95F1"></path>
                        </g>
                    </g>
                </g>
            </g>
        </g>
    </g>
</svg>