<?xml version="1.0" encoding="UTF-8"?>
<svg width="58px" height="53px" viewBox="0 0 58 53" version="1.1" xmlns="http://www.w3.org/2000/svg" xmlns:xlink="http://www.w3.org/1999/xlink">
    <!-- Generator: Sketch 40.1 (33804) - http://www.bohemiancoding.com/sketch -->
    <title>C Heart Colored Copy</title>
    <desc>Created with Sketch.</desc>
    <defs></defs>
    <g id="Symbols" stroke="none" stroke-width="1" fill="none" fill-rule="evenodd">
        <g id="Footer" transform="translate(-77.000000, -21.000000)">
            <g id="Group-8">
                <g id="C-Heart-Colored-Copy" transform="translate(77.000000, 21.000000)">
                    <g id="C-Heart-Colored">
                        <g id="Layer_2">
                            <g id="Layer_1-2">
                                <path d="M12.570119,0.272718447 C5.82244048,1.59686084 2.44255952,7.30508091 2.08005952,7.94313916 C-0.238214286,12.0064725 -0.0586904762,15.9720388 0.0621428571,18.061165 C0.46952381,25.0540777 4.1514881,29.8240777 5.75857143,31.8137217 C7.46692548,33.9387751 9.49417542,35.7899915 11.7691667,37.3023948 C15.0492451,39.1121198 17.9414003,41.5418791 20.2827381,44.454822 C23.9180952,49.0172816 24.8329762,53.1595146 25.3629167,52.9845631 C25.9808929,52.7804531 25.1471429,46.0019417 21.7569048,39.8220388 C21.0721159,38.5836188 20.3230923,37.3813539 19.5128571,36.2200971 C17.2498214,33.0366667 15.9275595,32.0315534 13.7680952,29.2031715 C12.4987231,27.5391877 11.3584555,25.7817538 10.3571429,23.9460518 C10.3571429,23.9357605 10.3450595,23.9306149 10.3467857,23.9220388 C10.0137055,23.2546729 9.74327463,22.558207 9.53892857,21.8414887 C7.70053571,15.4368932 11.2789286,8.73213592 17.5260119,6.86084142 C22.7632738,5.28799353 28.211131,7.61038835 30.9177976,12.1779935 C30.8194552,11.5516986 30.6828335,10.9319332 30.5086905,10.3221359 C28.737619,4.12679612 20.5416667,-1.29326861 12.570119,0.272718447 L12.570119,0.272718447 Z" id="Shape" fill="#6DCD62"></path>
                                <path d="M31.7239286,12.263754 C31.3079167,11.8949838 32.7820833,8.67381877 35.4283333,6.43203883 C37.836369,4.3892233 40.3928571,3.8592233 42.0275595,3.51618123 C44.0454762,3.09252427 46.7573214,2.52307443 49.8765476,3.70828479 C51.8168957,4.48665029 53.5284889,5.73843592 54.8531548,7.34796117 C56.2021798,9.00547274 57.1415915,10.9539988 57.5960714,13.0373139 C58.2865476,16.1332686 57.7065476,18.6117476 57.2508333,20.4813269 C56.3861105,23.9400717 54.6727882,27.1321904 52.263869,29.7726214 C51.338631,30.8154693 50.3408929,31.6593528 48.3471429,33.3299676 C47.7343452,33.8445307 45.3711905,35.7964401 41.2956548,38.5750809 C40.2254167,39.3040453 33.3897024,43.9436893 31.183631,46.5439482 L31.0610714,46.6880259 C30.7814286,47.0207767 30.3705952,47.5319094 28.2042262,50.2127832 L26.1914881,52.7049838 C26.3625319,51.0056659 26.7619588,49.3367824 27.3791071,47.7428803 C29.0345238,43.4977346 31.755,41.2250809 35.480119,37.9833333 C43.8158929,30.7279935 48.9444048,25.7813269 50.1665476,21.567055 C50.93125,18.9136246 50.6844048,16.1915858 50.6844048,16.1915858 C50.6050122,14.9811084 50.3177729,13.7930513 49.835119,12.678835 C49.347869,11.5559877 48.6224651,10.5508605 47.7084524,9.73210356 C44.8982143,7.31708738 40.99875,8.03576052 40.0873214,8.20385113 C37.8605357,8.61378641 36.0221429,9.69608414 34.736131,10.4524919 C32.6370833,11.6788673 31.9535119,12.4695793 31.7239286,12.263754 L31.7239286,12.263754 Z" id="Shape" fill="#9E95F1"></path>
                                <path d="M29.1294643,18.1812298 C26.7127976,18.5945955 24.9607143,21.3509385 25.7340476,25.831068 C26.3934524,29.6542718 28.8895238,31.2579935 32.1209524,30.707411 C34.075,30.3746602 35.8477976,29.3969903 36.838631,28.3061165 C37.3409524,28.4055987 37.6827381,28.7777994 37.7863095,29.3746926 C38.0745833,31.0487379 35.5905952,33.9302913 31.21125,34.6764078 C25.620119,35.6283495 20.980119,32.8531392 20.0324405,27.3576052 C19.0536905,21.6836893 23.2034524,15.9943366 28.9982738,15.0080906 C33.0410119,14.3220065 35.7839286,15.7593528 36.113631,17.6700971 C36.3190476,18.8707443 35.4231548,20.0713916 33.3016667,20.67 C32.2314286,18.8673139 30.7469048,17.8982201 29.1294643,18.1812298 L29.1294643,18.1812298 Z" id="Shape" fill="#9E95F1"></path>
                            </g>
                        </g>
                    </g>
                </g>
            </g>
        </g>
    </g>
</svg>