<?xml version="1.0" encoding="UTF-8"?>
<svg width="109px" height="35px" viewBox="0 0 109 35" version="1.1" xmlns="http://www.w3.org/2000/svg" xmlns:xlink="http://www.w3.org/1999/xlink">
    <!-- Generator: Sketch 40.1 (33804) - http://www.bohemiancoding.com/sketch -->
    <title>cNanny Logo White</title>
    <desc>Created with Sketch.</desc>
    <defs></defs>
    <g id="Symbols" stroke="none" stroke-width="1" fill="none" fill-rule="evenodd">
        <g id="Nav-Bar-iPad" transform="translate(-56.000000, -13.000000)" fill="#F4F4F4">
            <g id="Nav-Bar">
                <g id="cNanny-Logo-White" transform="translate(56.000000, 13.013333)">
                    <g id="Layer_2">
                        <g>
                            <g>
                                <g id="Layer_1-2">
                                    <path d="M27.6502494,37.775036 L22.7160091,37.775036 L22.7160091,41.898705 C22.7407774,42.1607654 22.6153846,42.4142742 22.3923715,42.5530084 C22.1693585,42.6917427 21.8872402,42.6917427 21.6642271,42.5530084 C21.441214,42.4142742 21.3158212,42.1607654 21.3405896,41.898705 L21.3405896,32.2283453 C21.3158212,31.9662849 21.441214,31.7127762 21.6642271,31.5740419 C21.8872402,31.4353076 22.1693585,31.4353076 22.3923715,31.5740419 C22.6153846,31.7127762 22.7407774,31.9662849 22.7160091,32.2283453 L22.7160091,36.4169784 L27.6502494,36.4169784 L27.6502494,32.2283453 C27.6254811,31.9662849 27.7508739,31.7127762 27.973887,31.5740419 C28.1969,31.4353076 28.4790183,31.4353076 28.7020314,31.5740419 C28.9250445,31.7127762 29.0504373,31.9662849 29.0256689,32.2283453 L29.0256689,41.898705 C29.0504373,42.1607654 28.9250445,42.4142742 28.7020314,42.5530084 C28.4790183,42.6917427 28.1969,42.6917427 27.973887,42.5530084 C27.7508739,42.4142742 27.6254811,42.1607654 27.6502494,41.898705 L27.6502494,37.775036 Z" id="Shape"></path>
                                    <path d="M32.7109297,31.4271223 C33.221887,31.4271223 33.6360998,31.8426278 33.6360998,32.3551799 C33.6360998,32.8677319 33.221887,33.2832374 32.7109297,33.2832374 C32.1999724,33.2832374 31.7857596,32.8677319 31.7857596,32.3551799 C31.7857596,31.8426278 32.1999724,31.4271223 32.7109297,31.4271223 L32.7109297,31.4271223 Z M33.3924717,35.7580576 C33.4095036,35.5056548 33.2849264,35.2647602 33.0694167,35.1333668 C32.8539069,35.0019733 32.583372,35.0019733 32.3678623,35.1333668 C32.1523525,35.2647602 32.0277753,35.5056548 32.0448073,35.7580576 L32.0448073,41.9110791 C32.0277753,42.1634819 32.1523525,42.4043765 32.3678623,42.5357699 C32.583372,42.6671634 32.8539069,42.6671634 33.0694167,42.5357699 C33.2849264,42.4043765 33.4095036,42.1634819 33.3924717,41.9110791 L33.3924717,35.7580576 Z" id="Shape"></path>
                                    <path d="M39.3690703,36.3365468 C38.0368254,36.3365468 37.4755556,37.8833094 37.4755556,39.8538849 L37.4755556,41.9172662 C37.4925875,42.1696689 37.3680103,42.4105636 37.1525006,42.541957 C36.9369908,42.6733504 36.6664559,42.6733504 36.4509462,42.541957 C36.2354364,42.4105636 36.1108592,42.1696689 36.1278912,41.9172662 L36.1278912,35.7611511 C36.1108592,35.5087483 36.2354364,35.2678537 36.4509462,35.1364603 C36.6664559,35.0050669 36.9369908,35.0050669 37.1525006,35.1364603 C37.3680103,35.2678537 37.4925875,35.5087483 37.4755556,35.7611511 L37.4755556,36.7851079 C37.8302041,35.4734532 38.4963265,34.947554 39.3999093,34.947554 C39.902585,34.947554 40.7321542,35.0589209 40.614966,35.8415827 C40.5409524,36.3056115 40.1554649,36.4015108 39.6897959,36.3520144 C39.5834184,36.3388788 39.4762134,36.3337087 39.3690703,36.3365468 L39.3690703,36.3365468 Z" id="Shape"></path>
                                    <path d="M48.2352834,39.3867626 L43.1437642,39.3867626 C43.2350449,40.5507384 44.2159177,41.4410291 45.3795918,41.4161151 C46.0610424,41.4725438 46.7243756,41.1777153 47.1404989,40.6334532 C47.3384842,40.3320515 47.7413574,40.2465358 48.0440816,40.4416547 C48.3132739,40.6692731 48.3641704,41.0656244 48.1612698,41.3542446 C47.499553,42.2487929 46.4432709,42.7618278 45.3333333,42.7277698 C43.365805,42.7277698 41.7960998,41.1810072 41.7960998,38.8113669 C41.7960998,36.4417266 43.365805,34.9568345 45.3333333,34.9568345 C47.3008617,34.9568345 48.7657143,36.4602878 48.7657143,38.823741 C48.7709744,39.1248907 48.5353144,39.3750302 48.2352834,39.3867626 L48.2352834,39.3867626 Z M47.4365533,38.2514388 C47.2731066,37.0140288 46.4435374,36.2530216 45.3364172,36.2530216 C44.1944732,36.2332539 43.234784,37.1091611 43.1468481,38.2514388 L47.4365533,38.2514388 Z" id="Shape"></path>
                                    <path d="M62.8714739,42.0255396 C62.7234467,42.4380096 62.4870144,42.6442446 62.1621769,42.6442446 L62.1313379,42.6442446 C61.7778332,42.6267708 61.4803366,42.372792 61.4066213,42.0255396 L59.7043084,36.8469784 L58.0605896,42.0255396 C57.9279819,42.4400719 57.675102,42.6442446 57.3512925,42.6442446 L57.3204535,42.6442446 C56.9669488,42.6267708 56.6694522,42.372792 56.595737,42.0255396 L54.4370068,35.9684173 C54.3118218,35.593617 54.5095036,35.1873798 54.8810884,35.0558273 C55.0546457,35.0021948 55.2426216,35.0233938 55.3999747,35.1143449 C55.5573277,35.2052961 55.6698782,35.3578032 55.7106576,35.5353237 L57.3081179,40.4107194 L58.850068,35.6961871 C58.925587,35.3053664 59.2673636,35.0235596 59.6642177,35.0248921 L59.7382313,35.0248921 C60.1391383,35.0248921 60.3889342,35.2476259 60.5369615,35.6961871 L62.0789116,40.4107194 L63.6609524,35.5353237 C63.7053749,35.3566681 63.821003,35.2041589 63.9807677,35.113499 C64.1405323,35.0228391 64.3304069,35.0019881 64.505941,35.0558273 C64.8775259,35.1873798 65.0752077,35.593617 64.9500227,35.9684173 L62.8714739,42.0255396 Z" id="Shape"></path>
                                    <path d="M67.7872109,31.4271223 C68.2981682,31.4271223 68.712381,31.8426278 68.712381,32.3551799 C68.712381,32.8677319 68.2981682,33.2832374 67.7872109,33.2832374 C67.2762536,33.2832374 66.8620408,32.8677319 66.8620408,32.3551799 C66.8620408,31.8426278 67.2762536,31.4271223 67.7872109,31.4271223 L67.7872109,31.4271223 Z M68.4687528,35.7580576 C68.4857847,35.5056548 68.3612076,35.2647602 68.1456978,35.1333668 C67.9301881,35.0019733 67.6596532,35.0019733 67.4441434,35.1333668 C67.2286337,35.2647602 67.1040565,35.5056548 67.1210884,35.7580576 L67.1210884,41.9110791 C67.1040565,42.1634819 67.2286337,42.4043765 67.4441434,42.5357699 C67.6596532,42.6671634 67.9301881,42.6671634 68.1456978,42.5357699 C68.3612076,42.4043765 68.4857847,42.1634819 68.4687528,41.9110791 L68.4687528,35.7580576 Z" id="Shape"></path>
                                    <path d="M70.9821315,36.3365468 C70.6414933,36.3365468 70.3653515,36.0595431 70.3653515,35.7178417 C70.3653515,35.3761404 70.6414933,35.0991367 70.9821315,35.0991367 L71.7222676,35.0991367 L71.7222676,32.9336691 C71.7052357,32.6812663 71.8298128,32.4403717 72.0453226,32.3089783 C72.2608323,32.1775848 72.5313672,32.1775848 72.746877,32.3089783 C72.9623867,32.4403717 73.0869639,32.6812663 73.069932,32.9336691 L73.069932,35.0991367 L74.0475283,35.0991367 C74.3881666,35.0991367 74.6643084,35.3761404 74.6643084,35.7178417 C74.6643084,36.0595431 74.3881666,36.3365468 74.0475283,36.3365468 L73.069932,36.3365468 L73.069932,41.9048921 C73.0869639,42.1572948 72.9623867,42.3981895 72.746877,42.5295829 C72.5313672,42.6609763 72.2608323,42.6609763 72.0453226,42.5295829 C71.8298128,42.3981895 71.7052357,42.1572948 71.7222676,41.9048921 L71.7222676,36.3365468 L70.9821315,36.3365468 Z" id="Shape"></path>
                                    <path d="M82.9414966,41.9141727 C82.9585285,42.1665754 82.8339513,42.40747 82.6184416,42.5388635 C82.4029319,42.6702569 82.1323969,42.6702569 81.9168872,42.5388635 C81.7013775,42.40747 81.5768003,42.1665754 81.5938322,41.9141727 L81.5938322,38.3597122 C81.5938322,37.1223022 80.9122902,36.3767626 79.9655329,36.3767626 C79.0187755,36.3767626 77.8653968,36.9521583 77.8653968,38.5422302 L77.8653968,41.9141727 C77.8824287,42.1665754 77.7578516,42.40747 77.5423418,42.5388635 C77.3268321,42.6702569 77.0562972,42.6702569 76.8407874,42.5388635 C76.6252777,42.40747 76.5007005,42.1665754 76.5177324,41.9141727 L76.5177324,31.7055396 C76.5007005,31.4531368 76.6252777,31.2122422 76.8407874,31.0808488 C77.0562972,30.9494553 77.3268321,30.9494553 77.5423418,31.0808488 C77.7578516,31.2122422 77.8824287,31.4531368 77.8653968,31.7055396 L77.8653968,36.2282734 C78.2786395,35.3342446 79.3888435,34.9506475 80.1443991,34.9506475 C81.8744671,34.9506475 82.9569161,36.1664029 82.9414966,38.2576259 L82.9414966,41.9141727 Z" id="Shape"></path>
                                    <path d="M89.6767347,36.3365468 C89.3360965,36.3365468 89.0599546,36.0595431 89.0599546,35.7178417 C89.0599546,35.3761404 89.3360965,35.0991367 89.6767347,35.0991367 L90.4168707,35.0991367 L90.4168707,32.9336691 C90.3998388,32.6812663 90.524416,32.4403717 90.7399257,32.3089783 C90.9554355,32.1775848 91.2259704,32.1775848 91.4414802,32.3089783 C91.6569899,32.4403717 91.7815671,32.6812663 91.7645351,32.9336691 L91.7645351,35.0991367 L92.7421315,35.0991367 C93.0827697,35.0991367 93.3589116,35.3761404 93.3589116,35.7178417 C93.3589116,36.0595431 93.0827697,36.3365468 92.7421315,36.3365468 L91.7645351,36.3365468 L91.7645351,41.9048921 C91.7815671,42.1572948 91.6569899,42.3981895 91.4414802,42.5295829 C91.2259704,42.6609763 90.9554355,42.6609763 90.7399257,42.5295829 C90.524416,42.3981895 90.3998388,42.1572948 90.4168707,41.9048921 L90.4168707,36.3365468 L89.6767347,36.3365468 Z" id="Shape"></path>
                                    <path d="M98.4380952,36.3365468 C97.1058503,36.3365468 96.5445805,37.8833094 96.5445805,39.8538849 L96.5445805,41.9172662 C96.5616124,42.1696689 96.4370352,42.4105636 96.2215255,42.541957 C96.0060158,42.6733504 95.7354808,42.6733504 95.5199711,42.541957 C95.3044614,42.4105636 95.1798842,42.1696689 95.1969161,41.9172662 L95.1969161,35.7611511 C95.1798842,35.5087483 95.3044614,35.2678537 95.5199711,35.1364603 C95.7354808,35.0050669 96.0060158,35.0050669 96.2215255,35.1364603 C96.4370352,35.2678537 96.5616124,35.5087483 96.5445805,35.7611511 L96.5445805,36.7851079 C96.899229,35.4734532 97.5653515,34.947554 98.4689342,34.947554 C98.97161,34.947554 99.8011791,35.0589209 99.6839909,35.8415827 C99.6099773,36.3056115 99.2244898,36.4015108 98.7588209,36.3520144 C98.6524433,36.3388788 98.5452383,36.3337087 98.4380952,36.3365468 L98.4380952,36.3365468 Z" id="Shape"></path>
                                    <path d="M106.265034,41.4532374 C105.842034,42.2522642 105.00807,42.7458385 104.106304,42.7308633 C102.388571,42.7308633 101.441814,41.5151079 101.441814,39.4207914 L101.441814,35.7611511 C101.424782,35.5087483 101.549359,35.2678537 101.764869,35.1364603 C101.980379,35.0050669 102.250914,35.0050669 102.466423,35.1364603 C102.681933,35.2678537 102.80651,35.5087483 102.789478,35.7611511 L102.789478,39.3248921 C102.789478,40.5623022 103.366168,41.3078417 104.312925,41.3078417 C105.259683,41.3078417 106.265034,40.7169784 106.265034,39.1423741 L106.265034,35.7611511 C106.248002,35.5087483 106.372579,35.2678537 106.588089,35.1364603 C106.803599,35.0050669 107.074134,35.0050669 107.289643,35.1364603 C107.505153,35.2678537 107.62973,35.5087483 107.612698,35.7611511 L107.612698,41.9141727 C107.62973,42.1665754 107.505153,42.40747 107.289643,42.5388635 C107.074134,42.6702569 106.803599,42.6702569 106.588089,42.5388635 C106.372579,42.40747 106.248002,42.1665754 106.265034,41.9141727 L106.265034,41.4532374 Z" id="Shape"></path>
                                    <path d="M112.587029,41.4532374 C113.283991,41.4532374 113.802086,41.0541727 113.802086,40.4633094 C113.802086,39.9188489 113.401179,39.6497122 112.876916,39.5352518 L111.945578,39.2877698 C110.77678,38.9536691 110.095238,38.328777 110.095238,37.1470504 C110.095238,35.9096403 111.116009,34.9568345 112.506848,34.9568345 C113.410431,34.9568345 114.283175,35.3094964 114.680998,36.1725899 C114.719746,36.2783197 114.733471,36.3916358 114.721088,36.5035971 C114.72123,36.8586741 114.439635,37.1493751 114.085805,37.1594245 C113.882373,37.1435066 113.699956,37.0276922 113.598549,36.8500719 C113.369293,36.4631922 112.952418,36.2275996 112.503764,36.2313669 C112.229077,36.2054027 111.956097,36.2959751 111.751019,36.4811215 C111.54594,36.6662679 111.427493,36.9290792 111.424399,37.2058273 C111.424399,37.6853237 111.853061,37.957554 112.297143,38.0689209 L113.317914,38.3411511 C114.755011,38.7247482 115.10966,39.6682734 115.10966,40.5066187 C115.10966,41.898705 113.8761,42.7432374 112.429751,42.7432374 C111.295827,42.7687029 110.282043,42.0381653 109.944127,40.9520863 C109.927699,40.8788297 109.917383,40.8043274 109.913288,40.7293525 C109.936085,40.4282884 110.166369,40.1845935 110.464849,40.14567 C110.763329,40.1067464 111.048073,40.2832789 111.146848,40.5684892 C111.386846,41.1437717 111.967113,41.500248 112.587029,41.4532374 L112.587029,41.4532374 Z" id="Shape"></path>
                                    <path d="M117.145034,36.3365468 C116.804396,36.3365468 116.528254,36.0595431 116.528254,35.7178417 C116.528254,35.3761404 116.804396,35.0991367 117.145034,35.0991367 L117.88517,35.0991367 L117.88517,32.9336691 C117.868138,32.6812663 117.992715,32.4403717 118.208225,32.3089783 C118.423735,32.1775848 118.69427,32.1775848 118.909779,32.3089783 C119.125289,32.4403717 119.249866,32.6812663 119.232834,32.9336691 L119.232834,35.0991367 L120.210431,35.0991367 C120.551069,35.0991367 120.827211,35.3761404 120.827211,35.7178417 C120.827211,36.0595431 120.551069,36.3365468 120.210431,36.3365468 L119.232834,36.3365468 L119.232834,41.9048921 C119.249866,42.1572948 119.125289,42.3981895 118.909779,42.5295829 C118.69427,42.6609763 118.423735,42.6609763 118.208225,42.5295829 C117.992715,42.3981895 117.868138,42.1572948 117.88517,41.9048921 L117.88517,36.3365468 L117.145034,36.3365468 Z" id="Shape"></path>
                                    <path d="M6.72598639,6.84906475 C3.11473923,7.56366906 1.3075737,10.6479137 1.11328798,10.991295 C-0.120272109,13.1876978 -0.0308390023,15.3222302 0.0339229025,16.457554 C0.252879819,20.2347482 2.22349206,22.8116547 3.07773243,23.8820144 C3.99205559,25.0294944 5.0769126,26.0290502 6.29424036,26.8456115 C8.04970768,27.8251566 9.59709685,29.1398658 10.849161,30.7156115 C12.795102,33.1904317 13.2854422,35.4177698 13.5660771,35.324964 C13.8960544,35.2135971 13.4488889,31.5539568 11.6355556,28.2098561 C11.2684071,27.5418517 10.8669606,26.8934025 10.4328345,26.2671223 C9.22086168,24.5471223 8.51464853,24.0057554 7.34893424,22.477554 C6.67911896,21.5777541 6.07810048,20.6284283 5.55102041,19.6376978 L5.55102041,19.6376978 C5.37303256,19.2774756 5.22850647,18.9015705 5.11927438,18.5147482 C4.1385941,15.0592806 6.04444444,11.4336691 9.39664399,10.4189928 C12.1593497,9.59583112 15.124159,10.7821289 16.5636281,13.2866906 C16.5109767,12.9484442 16.4378559,12.6137249 16.3446712,12.2843885 C15.3763265,8.93100719 10.9941043,6.00453237 6.72598639,6.84906475 L6.72598639,6.84906475 Z" id="Shape"></path>
                                    <path d="M16.9614512,13.3269065 C16.7394104,13.1289209 17.525805,11.3872662 18.9443991,10.1746043 C19.962329,9.34587351 21.1804493,8.80161129 22.4754649,8.59690647 C23.5548299,8.36798561 25.0073469,8.05863309 26.675737,8.69899281 C27.7132594,9.11918057 28.6285532,9.79476053 29.3371429,10.6633813 C30.0588297,11.5583301 30.5615636,12.6103737 30.8050794,13.7352518 C31.068586,15.0710593 31.0050922,16.4510537 30.6200454,17.7568345 C30.1573211,19.6246169 29.2408736,21.3484518 27.9524717,22.7745324 C27.3011088,23.4653515 26.6002195,24.1074261 25.8554195,24.6956115 C25.5285261,24.9740288 24.2610431,26.0289209 22.0807256,27.5292806 C21.5071202,27.9221583 17.8496145,30.4279137 16.6684807,31.8323741 L16.6037188,31.9097122 C16.4526077,32.0891367 16.2336508,32.3644604 15.0617687,33.8153237 L13.9854875,35.1610072 C14.0869749,34.2421238 14.311018,33.3410735 14.65161,32.4820144 C15.5366893,30.1897122 16.9922902,28.9615827 18.9875737,27.2230216 C23.4376417,23.2942446 26.1946485,20.6214388 26.829932,18.3446043 C27.0786193,17.3977908 27.1723567,16.4167453 27.107483,15.4397842 C27.0651523,14.786386 26.9118351,14.1450472 26.6541497,13.5434532 C26.3931928,12.9375308 26.0050517,12.3951807 25.5161905,11.9533813 C24.0112472,10.6479137 21.9265306,11.0253237 21.4392744,11.1274101 C20.4204928,11.3576403 19.4511734,11.7694199 18.577415,12.3431655 C17.464127,13.0113669 17.0971429,13.4382734 16.9614512,13.3269065 L16.9614512,13.3269065 Z" id="Shape"></path>
                                    <path d="M15.5860317,16.5194245 C14.2877098,16.7421583 13.3563719,18.2332374 13.7696145,20.6523741 C14.1211791,22.7188489 15.4565079,23.585036 17.186576,23.284964 C18.1431366,23.1319772 19.0265061,22.6780811 19.7092063,21.988777 C19.9868178,22.0481184 20.1925416,22.2834258 20.214966,22.5672662 C20.369161,23.4705755 19.04,25.0420863 16.6962358,25.4318705 C13.7048526,25.9453957 11.2223129,24.4481295 10.7134694,21.4783453 C10.1892063,18.4126619 12.4096145,15.3407914 15.5120181,14.8056115 C17.6707483,14.4343885 19.1448526,15.2108633 19.3206349,16.2441007 C19.4316553,16.8906475 18.947483,17.5371942 17.8156916,17.8651079 C17.248254,16.8968345 16.4526077,16.3709353 15.5860317,16.5194245 L15.5860317,16.5194245 Z" id="Shape"></path>
                                    <path d="M33.9229025,7.92251799 C33.9248559,8.40079314 34.0212867,8.87393744 34.2066213,9.31460432 C33.9527423,9.64299462 33.548911,9.81810629 33.1365079,9.77863309 C32.6502374,9.7840898 32.1867977,9.57205638 31.8721088,9.20014388 C31.526712,8.81448441 31.3540136,8.18340528 31.3540136,7.30690647 C31.3540136,5.27136691 31.9245351,3.61633094 33.0655782,2.34179856 C34.2066213,1.06726619 35.7259562,0.42793765 37.6235828,0.42381295 C40.7609373,0.42381295 42.6266969,2.27992806 43.2208617,5.99215827 C43.6614556,4.39522893 44.5511408,2.95934253 45.7835828,1.85611511 C46.9349954,0.837125915 48.4239059,0.285590647 49.9591837,0.309352518 C52.4263039,0.33616307 54.276644,1.3477458 55.5102041,3.34410072 C56.7437642,5.34045564 57.3605442,8.01326139 57.3605442,11.362518 L57.3605442,22.295036 C57.3605442,23.7902398 57.6401512,24.9884652 58.1993651,25.8897122 C58.758579,26.7909592 59.4894633,27.2415827 60.3920181,27.2415827 C62.6247619,27.2415827 63.7421618,24.8203837 63.7442177,19.9779856 C63.766833,19.8233094 63.8912169,19.7459712 64.1173696,19.7459712 C64.2976846,19.7351045 64.4773645,19.7758733 64.6354649,19.8635252 C64.9911413,20.1481295 65.1689796,20.7792086 65.1689796,21.7567626 C65.1689796,23.9201679 64.694059,25.6731655 63.7442177,27.0157554 C62.9128314,28.2924095 61.4864058,29.0516506 59.9664399,29.0265468 C57.7789267,29.0265468 56.2523961,28.2346043 55.3868481,26.6507194 C54.5213001,25.0668345 54.0874981,22.8446523 54.0854422,19.9841727 L54.0854422,11.3594245 C54.0854422,5.27961631 52.7069388,2.23971223 49.949932,2.23971223 C48.9483264,2.21799266 47.9667621,2.52304274 47.1528345,3.10899281 C46.373124,3.67170702 45.733547,4.4075045 45.2839909,5.25899281 C44.7915388,6.22364705 44.4315643,7.25074704 44.2138776,8.31230216 C43.7370703,10.4575715 43.5104251,12.6511598 43.5385034,14.8489209 L43.5385034,19.7985612 C43.5385034,22.9931415 43.0687226,25.5236451 42.129161,27.3900719 C41.1895994,29.2564988 39.7761451,30.1907434 37.8887982,30.1928058 C35.9993953,30.1928058 34.5797732,29.7225899 33.629932,28.7821583 C32.6800907,27.8417266 32.2051701,26.5991607 32.2051701,25.0544604 C32.2051701,23.0704796 32.7993348,22.0784892 33.9876644,22.0784892 C34.2531062,22.072965 34.5141148,22.1473098 34.7370522,22.2919424 C34.9743411,22.4634969 35.1591261,22.6981455 35.2705669,22.9694245 C35.048755,23.7545612 34.9529831,24.5701187 34.9868481,25.3854676 C34.9868481,26.453765 35.2428118,27.2591127 35.7547392,27.8015108 C36.2565985,28.3385541 36.9640987,28.6337026 37.6975964,28.6120144 C39.3855178,28.6120144 40.2294785,26.4465468 40.2294785,22.1156115 L40.2294785,7.14913669 C40.2294785,5.6559952 39.9498715,4.45776978 39.3906576,3.55446043 C38.9377843,2.71510576 38.0599797,2.19510867 37.1085714,2.20258993 C36.1715287,2.18942396 35.2947746,2.66488755 34.7925624,3.45856115 C34.2127891,4.2958753 33.9229025,5.78386091 33.9229025,7.92251799 L33.9229025,7.92251799 Z" id="Shape"></path>
                                    <path d="M74.2664853,11.8636691 C74.5748753,11.1170983 75.0682993,10.7438129 75.7467574,10.7438129 C76.3053071,10.6997741 76.8560824,10.8966916 77.2609524,11.2851799 L77.2609524,22.3723741 C77.2609524,23.8407674 77.4747695,24.9482494 77.9024036,25.6948201 C78.3300378,26.4413909 78.911867,26.8146763 79.6478912,26.8146763 C81.8806349,26.8146763 82.9980348,24.3027338 83.0000907,19.2788489 C83.022706,19.1241727 83.2005442,19.0468345 83.5336054,19.0468345 C83.9612396,19.0468345 84.1750567,19.7294724 84.1750567,21.0947482 C84.1750567,23.284964 83.7412547,25.0379616 82.8736508,26.353741 C82.0949508,27.6194139 80.7011822,28.3709764 79.219229,28.3243165 C76.8178987,28.3243165 75.2255782,27.1776499 74.4422676,24.8843165 C74.0473933,25.865244 73.4107272,26.7295546 72.5919274,27.396259 C71.8339894,28.0055634 70.8894393,28.3334174 69.9181859,28.3243165 C65.7590325,28.3243165 63.6794558,25.3751559 63.6794558,19.4768345 C63.6794558,16.4884892 64.3270748,14.2858993 65.6223129,12.8690647 C66.917551,11.4522302 68.6342555,10.7438129 70.7724263,10.7438129 C72.4110053,10.7438129 73.5756916,11.1170983 74.2664853,11.8636691 L74.2664853,11.8636691 Z M67.5651701,24.2377698 C67.8982313,25.3720624 68.278579,26.0866667 68.7062132,26.3815827 C69.218097,26.7016877 69.8153189,26.8571262 70.4177778,26.8270504 C71.1311867,26.8270504 71.9093575,26.3444604 72.7522902,25.3792806 C73.595223,24.4141007 74.0156614,23.155036 74.0136054,21.6020863 L74.0136054,16.3059712 C74.0623902,15.2564955 73.7546986,14.2214753 73.1408617,13.3702158 C72.5590325,12.6236451 71.9052457,12.2503597 71.1795011,12.2503597 C70.5939389,12.230178 70.0091464,12.3086028 69.4494331,12.4823741 C68.9623943,12.6823372 68.5420643,13.0170759 68.2374603,13.447554 C67.4562056,14.3817986 67.0655782,16.3956835 67.0655782,19.4892086 C67.0655782,21.5144365 67.2321088,23.0941966 67.5651701,24.2284892 L67.5651701,24.2377698 Z" id="Shape"></path>
                                    <path d="M102.354649,19.0499281 C102.782283,19.0499281 102.9961,19.7325659 102.9961,21.0978417 C102.9961,23.2880576 102.562298,25.0410552 101.694694,26.3568345 C100.82709,27.6726139 99.5616629,28.3294724 97.8984127,28.3274101 C96.2351625,28.3274101 94.9573998,27.708705 94.0651247,26.471295 C93.1728496,25.2338849 92.72774,23.4808873 92.7297959,21.2123022 L92.7297959,16.705036 C92.7297959,13.6403837 92.016387,12.1080576 90.5895692,12.1080576 C89.3292819,12.1080576 88.2951474,12.8041007 87.4871655,14.1961871 C86.6791837,15.5882734 86.2751927,17.9197602 86.2751927,21.1906475 L86.2751927,27.7829496 C86.0367045,28.1438609 85.6255178,28.3243165 85.0416327,28.3243165 C84.5014103,28.3465544 83.9793111,28.1266337 83.6168707,27.7241727 C83.228331,27.2249075 83.03823,26.5988126 83.083356,25.9670504 L83.083356,11.2820863 C83.3197884,10.9211751 83.7710658,10.7407194 84.4371882,10.7407194 C85.6707483,10.7407194 86.2875283,11.7069305 86.2875283,13.6393525 C87.2846561,11.7069305 88.864641,10.7407194 91.027483,10.7407194 C92.571489,10.7407194 93.8050491,11.2686811 94.7281633,12.3246043 C95.6512774,13.3805276 96.1087226,14.9004796 96.1004989,16.8844604 L96.1004989,22.3723741 C96.1004989,23.8407674 96.3143159,24.9482494 96.7419501,25.6948201 C97.1089096,26.4054366 97.8504289,26.841145 98.6478005,26.8146763 C99.4907332,26.8146763 100.232925,26.2413429 100.874376,25.0946763 C101.515828,23.9480096 101.836553,22.0094005 101.836553,19.2788489 C101.848889,19.126235 102.021587,19.0499281 102.354649,19.0499281 L102.354649,19.0499281 Z" id="Shape"></path>
                                    <path d="M121.175692,19.0499281 C121.603326,19.0499281 121.817143,19.7325659 121.817143,21.0978417 C121.817143,23.2880576 121.383341,25.0410552 120.515737,26.3568345 C119.648133,27.6726139 118.382706,28.3294724 116.719456,28.3274101 C115.056206,28.3274101 113.778443,27.708705 112.886168,26.471295 C111.993893,25.2338849 111.548783,23.4808873 111.550839,21.2123022 L111.550839,16.705036 C111.550839,13.6403837 110.83743,12.1080576 109.410612,12.1080576 C108.150325,12.1080576 107.11619,12.8041007 106.308209,14.1961871 C105.500227,15.5882734 105.097264,17.9146043 105.09932,21.1751799 L105.09932,27.7829496 C104.860831,28.1438609 104.449645,28.3243165 103.86576,28.3243165 C103.325537,28.3465544 102.803438,28.1266337 102.440998,27.7241727 C102.052458,27.2249075 101.862357,26.5988126 101.907483,25.9670504 L101.907483,11.2820863 C102.143915,10.9211751 102.595193,10.7407194 103.261315,10.7407194 C104.494875,10.7407194 105.111655,11.7069305 105.111655,13.6393525 C106.108783,11.7069305 107.688768,10.7407194 109.85161,10.7407194 C111.395616,10.7407194 112.629176,11.2686811 113.55229,12.3246043 C114.475404,13.3805276 114.93285,14.9004796 114.924626,16.8844604 L114.924626,22.3723741 C114.924626,23.8407674 115.138443,24.9482494 115.566077,25.6948201 C115.933037,26.4054366 116.674556,26.841145 117.471927,26.8146763 C118.31486,26.8146763 119.057052,26.2413429 119.698503,25.0946763 C120.339955,23.9480096 120.66068,22.0094005 120.66068,19.2788489 C120.67096,19.126235 120.84263,19.0499281 121.175692,19.0499281 L121.175692,19.0499281 Z" id="Shape"></path>
                                    <path d="M121.246621,11.3408633 C121.586297,10.9485719 122.082603,10.7285633 122.600454,10.7407194 C123.09791,10.7203933 123.57961,10.9179649 123.920363,11.2820863 L123.920363,22.3723741 C123.920363,25.4390887 124.633772,26.9714149 126.06059,26.9693525 C127.343492,26.9693525 128.395102,26.2351559 129.21542,24.7667626 C130.035737,23.2983693 130.446924,20.8235492 130.44898,17.3423022 L130.44898,13.1010791 C130.403854,12.4693169 130.593955,11.843222 130.982494,11.3439568 C131.32217,10.9516654 131.818476,10.7316568 132.336327,10.7438129 C132.833783,10.7234868 133.315483,10.9210585 133.656236,11.2851799 L133.656236,30.9135971 C133.942011,30.8867866 134.393288,30.8744125 135.010068,30.8764748 C135.626848,30.8785372 135.935238,31.1621103 135.935238,31.7271942 L135.722449,32.3056835 C134.819894,32.3056835 134.131156,32.3190887 133.656236,32.3458993 L133.656236,34.2793525 C133.656236,36.9315348 133.104218,39.0248201 132.000181,40.5592086 C131.007432,42.0332008 129.335297,42.8992704 127.562449,42.8576978 C126.497599,42.8675003 125.465376,42.489376 124.657415,41.7935252 C123.814482,41.0840767 123.393016,39.9704077 123.393016,38.452518 C123.393016,36.4953477 124.034467,34.9372422 125.31737,33.7782014 C126.600272,32.6191607 128.310809,31.8055635 130.44898,31.3374101 L130.44898,25.311223 C129.451852,27.319952 127.848224,28.3243165 125.638095,28.3243165 C124.116704,28.3243165 122.917067,27.7963549 122.039184,26.7404317 C121.1613,25.6845084 120.719274,24.1645564 120.713107,22.1805755 L120.713107,13.1010791 C120.667203,12.4682768 120.857346,11.8409398 121.246621,11.3408633 L121.246621,11.3408633 Z M125.203265,38.5638849 C125.203265,39.4651319 125.429418,40.1539568 125.881723,40.6303597 C126.301551,41.0929701 126.898765,41.3530962 127.522358,41.344964 C128.108659,41.3670341 128.677567,41.1427969 129.092063,40.726259 C129.996674,39.8518225 130.44898,37.2068585 130.44898,32.7913669 C126.953893,33.6513669 125.206349,35.5755396 125.206349,38.5638849 L125.203265,38.5638849 Z" id="Shape"></path>
                                </g>
                            </g>
                        </g>
                    </g>
                </g>
            </g>
        </g>
    </g>
</svg>