<?xml version="1.0" encoding="UTF-8"?>
<svg width="19px" height="40px" viewBox="0 0 19 40" version="1.1" xmlns="http://www.w3.org/2000/svg" xmlns:xlink="http://www.w3.org/1999/xlink">
    <!-- Generator: Sketch 40.1 (33804) - http://www.bohemiancoding.com/sketch -->
    <title>facebook-logo copy</title>
    <desc>Created with Sketch.</desc>
    <defs></defs>
    <g id="Symbols" stroke="none" stroke-width="1" fill="none" fill-rule="evenodd">
        <g id="Footer" transform="translate(-996.000000, -50.000000)" fill="#F4F4F4">
            <g id="Group-8">
                <g id="facebook-logo-copy" transform="translate(996.000000, 50.000000)">
                    <g id="Capa_1">
                        <path d="M12.6540864,13.0929936 L12.6540864,9.65002123 C12.6540864,9.13316348 12.6782682,8.73282378 12.7274091,8.45002123 C12.7763773,8.16679406 12.8877864,7.88823779 13.0606864,7.61324841 C13.2333273,7.33842887 13.5128864,7.14870488 13.8989318,7.04356688 C14.2854955,6.93825902 14.7991864,6.88577495 15.4405227,6.88577495 L18.9416182,6.88577495 L18.9416182,0 L13.3444773,0 C10.1058409,0 7.77980909,0.755583864 6.36603636,2.26675159 C4.95243636,3.77825902 4.24572273,6.00467091 4.24572273,8.94683652 L4.24572273,13.0929087 L0.0534590909,13.0929087 L0.0534590909,19.9791932 L4.24546364,19.9791932 L4.24546364,39.9584713 L12.654,39.9584713 L12.654,19.9792781 L18.2507955,19.9792781 L18.9905864,13.0929936 L12.6540864,13.0929936 L12.6540864,13.0929936 Z" id="Shape"></path>
                    </g>
                </g>
            </g>
        </g>
    </g>
</svg>