<svg xmlns="http://www.w3.org/2000/svg" viewBox="0 0 62.96 56.86"><defs><style>.cls-1{fill:#6dcd62;}.cls-2{fill:#9e95f1;}</style></defs><title>Asset 7</title><g id="Layer_2" data-name="Layer 2"><g id="Layer_1-2" data-name="Layer 1"><path class="cls-1" d="M13.67.29c-7.34,1.42-11,7.55-11.4,8.23A18.61,18.61,0,0,0,.07,19.38,25.63,25.63,0,0,0,6.25,34.14,28.82,28.82,0,0,0,12.79,40,31.14,31.14,0,0,1,22,47.7C26,52.6,27,57,27.56,56.86s-.24-7.49-3.92-14.12a43.7,43.7,0,0,0-2.44-3.86c-2.46-3.42-3.9-4.49-6.25-7.53a44.14,44.14,0,0,1-3.7-5.65s0,0,0,0a12.85,12.85,0,0,1-.88-2.23A13,13,0,0,1,19.05,7.36a12.76,12.76,0,0,1,14.56,5.7,16.49,16.49,0,0,0-.45-2C31.24,4.43,22.34-1.39,13.67.29Z"/><path class="cls-2" d="M34.49,13.16c-.45-.4,1.15-3.85,4-6.26a15.27,15.27,0,0,1,7.17-3.14A14.46,14.46,0,0,1,54.22,4a13.54,13.54,0,0,1,5.41,3.91,14.54,14.54,0,0,1,3,6.1,16.41,16.41,0,0,1-.37,8,23,23,0,0,1-5.42,10,39.16,39.16,0,0,1-4.26,3.82c-.67.55-3.24,2.65-7.67,5.63-1.16.78-8.59,5.76-11,8.55l-.13.16c-.3.36-.75.91-3.11,3.78l-2.19,2.67a20.19,20.19,0,0,1,1.29-5.33c1.8-4.56,4.76-7,8.81-10.47,9.06-7.79,14.65-13.09,16-17.62a17.63,17.63,0,0,0,.56-5.77,11.23,11.23,0,0,0-.92-3.77,9.12,9.12,0,0,0-2.31-3.16c-3.05-2.59-7.3-1.82-8.29-1.64a17.91,17.91,0,0,0-5.82,2.41C35.48,12.53,34.74,13.38,34.49,13.16Z"/><path class="cls-2" d="M31.67,19.5c-2.64.44-4.53,3.4-3.69,8.21.72,4.1,3.43,5.82,6.95,5.23A9.35,9.35,0,0,0,40,30.37a1.29,1.29,0,0,1,1,1.15c.31,1.8-2.39,4.89-7.15,5.69-6.08,1-11.12-2-12.15-7.85-1.06-6.09,3.45-12.19,9.75-13.25,4.39-.74,7.38.81,7.74,2.86.22,1.28-.76,2.57-3.06,3.22C35,20.26,33.43,19.21,31.67,19.5Z"/></g></g></svg>