<?xml version="1.0" encoding="UTF-8"?>
<svg width="129px" height="122px" viewBox="0 0 129 122" version="1.1" xmlns="http://www.w3.org/2000/svg" xmlns:xlink="http://www.w3.org/1999/xlink">
    <!-- Generator: Sketch 40.1 (33804) - http://www.bohemiancoding.com/sketch -->
    <title>Send button</title>
    <desc>Created with Sketch.</desc>
    <defs>
        <polygon id="path-1" points="1.41752108e-20 0.343929206 1.41752108e-20 121.302694 68.8405362 121.302694 68.8405362 0.343929206 0 0.343929206"></polygon>
    </defs>
    <g id="Page-1" stroke="none" stroke-width="1" fill="none" fill-rule="evenodd">
        <g id="Contact-form-blank" transform="translate(-95.000000, -683.000000)">
            <g id="Column-1" transform="translate(94.000000, 104.000000)">
                <g id="Buttons" transform="translate(1.000000, 579.000000)">
                    <g id="Send-button">
                        <g id="Group-3" transform="translate(0.000000, 0.353451)">
                            <mask id="mask-2" fill="white">
                                <use xlink:href="#path-1"></use>
                            </mask>
                            <g id="Clip-2"></g>
                            <path d="M27.9900714,0.965752 C12.9661038,3.98856343 5.43947676,17.0265291 4.63200649,18.4779806 C-0.53148,27.7576491 -0.132625946,36.8079577 0.138622703,41.5743234 C1.04650378,57.5375006 9.24462811,68.4296606 12.8057254,72.9687577 C17.5738443,79.0478434 22.5929903,83.0382891 26.1868605,85.4887463 C31.5595362,88.5680263 38.7786551,93.6264949 45.1442822,101.817923 C53.2371146,112.233238 55.2753146,121.689283 56.4544443,121.290518 C57.8302119,120.826221 55.9726119,105.351043 48.4243686,91.2429634 C46.3596714,87.3835806 44.0327903,83.9125063 43.4261416,83.0382891 C38.3867741,75.7705749 35.4441795,73.4769749 30.63492,67.0200377 C28.6992227,64.4217863 25.9267686,60.4097291 23.0483254,55.011752 C23.0336822,54.9894434 23.0211308,54.9755006 23.0246173,54.9566777 C22.2938497,53.4606091 21.6899903,51.8725177 21.2241957,50.2056491 C17.1450065,35.599112 25.1144173,20.2793977 39.0220119,15.9940606 C50.68152,12.4023806 62.814493,17.704152 68.8405362,28.118072 C68.6229795,26.7035691 68.3203524,25.2883691 67.9277741,23.8836263 C63.9845578,9.76648343 45.7446551,-2.606408 27.9900714,0.965752" id="Fill-1" fill="#7066CE" mask="url(#mask-2)"></path>
                        </g>
                        <path d="M70.6340546,28.6951669 C69.7094384,27.8537154 72.9881303,20.4988583 78.8830816,15.3727669 C84.2439032,10.7116697 89.9373357,9.48469829 93.5779249,8.70041257 C98.0720059,7.73208114 104.108509,6.43121257 111.052892,9.13752114 C112.145557,9.56347543 117.500801,11.7406526 122.133644,17.4446754 C123.131476,18.6737383 126.693968,23.2651211 128.241968,30.4310526 C129.768352,37.4986869 128.489509,43.1566983 127.474941,47.4260011 C124.788952,58.7308697 118.727346,65.9086526 116.370482,68.6344811 C114.311363,71.0166183 112.091168,72.9302754 107.650082,76.7568926 C106.284076,77.9343669 101.022271,82.3877154 91.9483411,88.7324126 C89.5663735,90.3978869 74.3464654,100.98679 69.4340059,106.922264 C69.4075086,106.953635 69.2952438,107.088881 69.1606654,107.25271 C68.5379789,108.01399 67.6224276,109.178218 62.7992222,115.299133 C62.5628384,115.599601 58.551287,120.691533 58.3169951,120.988515 C58.5938222,118.227133 59.2423086,114.181613 60.9618438,109.659944 C64.64706,99.968264 70.7037843,94.7801269 78.9974384,87.3785611 C97.5560059,70.8172354 108.995168,59.5235211 111.695801,49.9015554 C113.397206,43.8419897 112.852617,37.6304469 112.852617,37.6304469 C112.672714,35.7000583 112.388914,32.897544 110.959455,29.6112126 C110.468557,28.4818411 109.028638,25.357944 106.224109,22.8858754 C99.9679573,17.3707783 91.2831195,19.0118526 89.2546816,19.3952811 C84.2975951,20.3322411 80.2009735,22.8001269 77.3420546,24.5304354 C72.6666762,27.3594411 71.1472654,29.1622526 70.6340546,28.6951669" id="Fill-4" fill="#7066CE"></path>
                        <path d="M37.720367,55.9434137 C40.6929454,55.9434137 42.2604697,53.9572537 42.2604697,51.9348423 C42.2932427,49.4795051 40.365913,48.3961451 38.4385832,47.853768 L35.5315508,47.0597223 C30.7620373,45.7595509 30.0438211,42.6893337 30.0438211,40.5588651 C30.0438211,36.3697337 33.5065995,33.5525794 37.3284859,33.5525794 C40.9216589,33.5525794 43.5016589,35.6112423 44.3181941,38.8250709 C44.38374,39.0788309 44.416513,39.367448 44.416513,39.6560651 C44.416513,40.4501109 44.0574049,41.173048 42.9138373,41.173048 C42.3580914,41.173048 41.7381941,40.9199851 41.5094805,40.0171851 C40.9544319,37.7061566 39.3534373,36.766408 37.295713,36.766408 C35.1068968,36.766408 33.0819454,38.2471394 33.0819454,40.5226137 C33.0819454,41.6066709 33.4410535,43.2317109 36.28254,43.9902023 L39.2223454,44.784248 C43.0777022,45.8313566 45.2978968,48.214888 45.2978968,51.6099737 C45.2978968,55.6185451 42.5547292,59.0854366 37.720367,59.0854366 C33.7680859,59.0854366 31.1218427,56.7381566 30.2076859,53.5598823 C30.14214,53.3075166 30.109367,53.0544537 30.109367,52.8376423 C30.109367,51.8267851 30.8275832,51.284408 31.6120427,51.284408 C32.2654103,51.284408 32.7876859,51.7905337 32.9836265,52.4765223 C33.4410535,54.3183737 35.2700643,55.9434137 37.720367,55.9434137" id="Fill-6" fill="#7066CE"></path>
                        <path d="M60.6855746,48.9733097 C60.3264665,46.1568526 58.4974557,44.4586126 56.0478503,44.4586126 C53.5320016,44.4586126 51.5725962,46.1568526 51.2134881,48.9733097 L60.6855746,48.9733097 Z M62.4497368,51.5380983 L51.2134881,51.5380983 C51.5725962,54.3545554 53.5647746,56.1246011 56.1454719,56.1246011 C57.9744827,56.1246011 58.9869584,55.6184754 60.032207,54.3545554 C60.587953,53.6678697 61.4372611,53.4517554 62.0250827,53.9216297 C62.6136016,54.4263611 62.7432989,55.4023611 62.2865692,55.9795954 C60.8159692,58.0745097 58.5302286,59.0853669 56.0478503,59.0853669 C51.7029908,59.0853669 48.2402124,55.582224 48.2402124,50.2372297 C48.2402124,44.8922354 51.7029908,41.4978469 56.0478503,41.4978469 C60.3920124,41.4978469 63.6260773,44.8922354 63.6260773,50.2372297 C63.6260773,50.9957211 63.0703314,51.5380983 62.4497368,51.5380983 L62.4497368,51.5380983 Z" id="Fill-8" fill="#7066CE"></path>
                        <path d="M70.0963686,44.3867371 C71.0112227,42.3650229 73.1993416,41.4977771 74.8651849,41.4977771 C78.6536011,41.4977771 80.7447957,44.2424286 80.7447957,48.97324 L80.7447957,57.2434457 C80.7447957,58.1462457 80.0914281,58.9047371 79.24212,58.9047371 C78.4255849,58.9047371 77.7722173,58.1462457 77.7722173,57.2434457 L77.7722173,49.1907486 C77.7722173,46.3735943 76.4989524,44.7123029 74.4084551,44.7123029 C72.2524119,44.7123029 70.0963686,46.0487257 70.0963686,49.6236743 L70.0963686,57.2434457 C70.0963686,58.1462457 69.4430011,58.9047371 68.593693,58.9047371 C67.7771578,58.9047371 67.1237903,58.1462457 67.1237903,57.2434457 L67.1237903,43.3396286 C67.1237903,42.4368286 67.7771578,41.6783371 68.593693,41.6783371 C69.4430011,41.6783371 70.0963686,42.4368286 70.0963686,43.3396286 L70.0963686,44.3867371 Z" id="Fill-10" fill="#7066CE"></path>
                        <path d="M92.4084876,44.7121634 C89.6639254,44.7121634 87.4758065,46.8788834 87.4758065,50.2377177 C87.4758065,53.5596034 89.6639254,55.8713291 92.4084876,55.8713291 C95.1195795,55.8713291 97.4715632,53.8133634 97.4715632,50.2377177 C97.4715632,46.6258206 94.858093,44.7121634 92.4084876,44.7121634 L92.4084876,44.7121634 Z M97.5043362,34.1664834 C97.5043362,33.2636834 98.1570065,32.505192 99.0063146,32.505192 C99.823547,32.505192 100.476217,33.2636834 100.476217,34.1664834 L100.476217,57.2440034 C100.476217,58.1468034 99.823547,58.9045977 99.0063146,58.9045977 C98.1570065,58.9045977 97.5043362,58.1468034 97.5043362,57.2440034 L97.5043362,56.124392 C96.4911632,58.0380491 94.3030443,59.0851577 92.1797741,59.0851577 C87.9987795,59.0851577 84.4376822,55.6189634 84.4376822,50.2739691 C84.4376822,44.8927234 87.9332335,41.4983349 92.1470011,41.4983349 C94.3685903,41.4983349 96.4911632,42.4729406 97.5043362,44.3865977 L97.5043362,34.1664834 Z" id="Fill-12" fill="#7066CE"></path>
                    </g>
                </g>
            </g>
        </g>
    </g>
</svg>