<?xml version="1.0" encoding="UTF-8"?>
<svg width="42px" height="40px" viewBox="0 0 42 40" version="1.1" xmlns="http://www.w3.org/2000/svg" xmlns:xlink="http://www.w3.org/1999/xlink">
    <!-- Generator: Sketch 40.1 (33804) - http://www.bohemiancoding.com/sketch -->
    <title>linkedin-letters copy</title>
    <desc>Created with Sketch.</desc>
    <defs></defs>
    <g id="Symbols" stroke="none" stroke-width="1" fill="none" fill-rule="evenodd">
        <g id="Footer" transform="translate(-1168.000000, -50.000000)" fill="#F4F4F4">
            <g id="Group-8">
                <g id="linkedin-letters-copy" transform="translate(1168.000000, 50.000000)">
                    <g id="Capa_1">
                        <g id="Group">
                            <rect id="Rectangle-path" x="0.518924829" y="13.037619" width="9.01383144" height="26.9459048"></rect>
                            <path d="M39.1147244,15.4989524 C37.2212802,13.4414286 34.7169704,12.4124762 31.6033257,12.4124762 C30.456123,12.4124762 29.4132984,12.5529524 28.4753303,12.8340952 C27.5376492,13.1150476 26.7456765,13.5092381 26.0990296,14.0168571 C25.4527654,14.5244762 24.9380501,14.9957143 24.5559362,15.4305714 C24.192574,15.843619 23.8372483,16.3247619 23.490533,16.8690476 L23.490533,13.0374286 L14.5035854,13.0374286 L14.531139,14.3427619 C14.5496036,15.2131429 14.5586925,17.8958095 14.5586925,22.3911429 C14.5586925,26.8868571 14.5405148,32.7508571 14.5039681,39.9837143 L23.490533,39.9837143 L23.490533,24.9468571 C23.490533,24.0225714 23.5901276,23.2885714 23.7908474,22.7442857 C24.1735353,21.8193333 24.7511071,21.0449524 25.5254761,20.4198095 C26.2997494,19.7939048 27.2600091,19.4812381 28.4075945,19.4812381 C29.9731708,19.4812381 31.1253485,20.0204762 31.8629795,21.0990476 C32.6003235,22.1775238 32.9690433,23.6685714 32.9690433,25.572 L32.9690433,39.9828571 L41.9556082,39.9828571 L41.9556082,24.5394286 C41.9549385,20.5691429 41.0087426,17.5558095 39.1147244,15.4989524 L39.1147244,15.4989524 Z" id="Shape"></path>
                            <path d="M5.08046925,0.0674285714 C3.56923462,0.0674285714 2.34472893,0.507333333 1.40666515,1.38628571 C0.468697039,2.26542857 0,3.37533333 0,4.71704762 C0,6.04 0.455207289,7.14609524 1.36571754,8.03409524 C2.27594077,8.92219048 3.47796355,9.36647619 4.97111617,9.36647619 L5.02574487,9.36647619 C6.55553986,9.36647619 7.78942141,8.92257143 8.72710251,8.03409524 C9.6647836,7.14609524 10.1244875,6.04038095 10.1064055,4.71704762 C10.0882278,3.37542857 9.62354897,2.26542857 8.71332574,1.38628571 C7.80319818,0.506952381 6.59179954,0.0674285714 5.08046925,0.0674285714 L5.08046925,0.0674285714 Z" id="Shape"></path>
                        </g>
                    </g>
                </g>
            </g>
        </g>
    </g>
</svg>