<?xml version="1.0" encoding="UTF-8"?>
<svg width="94px" height="99px" viewBox="0 0 94 99" version="1.1" xmlns="http://www.w3.org/2000/svg" xmlns:xlink="http://www.w3.org/1999/xlink">
    <!-- Generator: Sketch 40.1 (33804) - http://www.bohemiancoding.com/sketch -->
    <title>Piggy Bank Icon</title>
    <desc>Created with Sketch.</desc>
    <defs>
        <polygon id="path-1" points="0.198659302 0.0953980583 0.198659302 36.077565 36.0949988 36.077565 36.0949988 0.0953980583"></polygon>
    </defs>
    <g id="Page-1" stroke="none" stroke-width="1" fill="none" fill-rule="evenodd">
        <g id="Landing-page" transform="translate(-598.000000, -946.000000)">
            <g id="Section-2" transform="translate(0.000000, 800.000000)">
                <g id="Column-2" transform="translate(460.000000, 146.000000)">
                    <g id="Piggy-Bank-Icon" transform="translate(138.000000, 0.000000)">
                        <path d="M30.906309,57.6252466 C28.1167793,58.177499 26.7193797,60.5588194 26.569529,60.8242175 C25.6108134,62.519266 25.6849154,64.1723922 25.7353048,65.0428583 C25.9039281,67.9586058 27.4261484,69.9484311 28.0871385,70.777635 C28.9724107,71.8880816 29.9044496,72.6169359 30.5713678,73.0645476 C31.5689458,73.627033 32.9093691,74.5509748 34.0910494,76.0473049 C35.5938386,77.9496544 35.9722529,79.6767223 36.1912656,79.604101 C36.4465059,79.519266 36.1016844,76.6926447 34.7003328,74.1155767 C34.3169783,73.4104893 33.8848811,72.7767029 33.772246,72.6166058 C32.8365844,71.2892854 32.2902055,70.8703922 31.3973584,69.6909553 C31.0380459,69.2162757 30.5232838,68.4834602 29.9887612,67.4974602 C29.9861265,67.493499 29.9838211,67.4908583 29.9844797,67.4872272 C29.8487907,67.2142369 29.736485,66.9240816 29.6501973,66.6194019 C28.8927099,63.9515573 30.372445,61.1529942 32.954489,60.370334 C35.1192562,59.714101 37.3719579,60.6829359 38.4907338,62.5849553 C38.4502247,62.3264893 38.3942365,62.0680233 38.3214519,61.8115379 C37.5893238,59.2328194 34.2026965,56.9726447 30.906309,57.6252466" id="Fill-1" fill="#6DCD62"></path>
                        <path d="M38.8237977,62.6258214 C38.6522104,62.4719961 39.260835,61.1288311 40.3552396,60.1923456 C41.3505122,59.3406951 42.4077011,59.1168893 43.0835116,58.9736272 C43.9180651,58.7966951 45.0388171,58.5590252 46.3281924,59.0535107 C46.5310673,59.1310835 47.5253518,59.5288505 48.3852647,60.5706369 C48.5706844,60.7951029 49.2323332,61.6338796 49.5195197,62.9430447 C49.8030835,64.2340544 49.5656276,65.2672583 49.3772438,66.0472777 C48.8782902,68.112365 47.7529274,69.4235107 47.3155607,69.9212971 C46.9331943,70.356365 46.5208577,70.7059379 45.6965138,71.4050835 C45.4425908,71.6199767 44.4657614,72.4333359 42.7811753,73.5923068 C42.3388686,73.8966563 39.5131113,75.8306951 38.600833,76.9150641 C38.5962222,76.9206757 38.5751443,76.945433 38.5504436,76.9754718 C38.4345151,77.1144427 38.2645744,77.3270252 37.3690926,78.4450641 C37.3252901,78.5001903 36.5803177,79.4300738 36.5368445,79.4842097 C36.5882219,78.9798214 36.7087612,78.2410641 37.0278939,77.4151612 C37.7122673,75.6448505 38.8366421,74.6971417 40.3766469,73.3450641 C43.8222265,70.3200544 45.9461553,68.2569476 46.4474143,66.4995107 C46.7632536,65.3926951 46.6621455,64.2578214 46.6621455,64.2578214 C46.628882,63.9052777 46.5761872,63.3932971 46.3107372,62.7931806 C46.2198388,62.5868699 45.9524128,62.016132 45.4317225,61.5645592 C44.2701321,60.557433 42.657672,60.8571612 42.2809043,60.9271417 C41.3607218,61.098132 40.599941,61.5490447 40.0690411,61.8649476 C39.2012241,62.3818796 38.9189777,62.7113165 38.8237977,62.6258214" id="Fill-3" fill="#6DCD62"></path>
                        <g id="Group-7" transform="translate(18.772514, 0.234699)">
                            <mask id="mask-2" fill="white">
                                <use xlink:href="#path-1"></use>
                            </mask>
                            <g id="Clip-6"></g>
                            <path d="M18.1468291,33.8804388 C9.44461628,33.8804388 2.38582181,26.8077786 2.38582181,18.084633 C2.38582181,9.36016699 9.43967615,2.2875068 18.1468291,2.2875068 C26.8526646,2.2875068 33.9065189,9.3588466 33.9065189,18.084633 C33.9065189,26.8077786 26.853982,33.8804388 18.1468291,33.8804388 M18.1468291,0.0953320388 C8.22868435,0.0953320388 0.198659302,8.15036117 0.198659302,18.0872738 C0.198659302,28.0241864 8.23527119,36.077565 18.1468291,36.077565 C28.0573989,36.077565 36.0949988,28.022866 36.0949988,18.0872738 C36.0949988,8.15036117 28.0610216,0.0953320388 18.1468291,0.0953320388" id="Fill-5" fill="#74C163" mask="url(#mask-2)"></path>
                        </g>
                        <path d="M41.3627308,25.3069592 C40.6892257,26.5296388 39.4604494,27.1815806 37.6800247,27.261134 L37.6800247,19.0301631 C38.9805976,19.3836971 39.9017682,19.7593476 40.4544046,20.1564544 C41.4141082,20.8354641 41.8926426,21.8267456 41.8926426,23.1289786 C41.8926426,23.9581825 41.7180912,24.6820854 41.3627308,25.3069592 L41.3627308,25.3069592 Z M36.1946907,15.8070951 C35.0284895,15.5796583 34.1076483,15.170668 33.413724,14.5883767 C32.7273745,14.0021243 32.3809064,13.1960272 32.3809064,12.1608427 C32.3809064,11.3045709 32.6773145,10.4856 33.2533342,9.70525049 C33.8369289,8.92093981 34.814417,8.50699806 36.1894212,8.45319223 L36.1946907,15.8070951 Z M42.5980939,18.0157748 C41.7322529,17.4206097 40.0914693,16.7841825 37.6813421,16.1055029 L37.6813421,8.48257087 C39.116616,8.5367068 40.163266,9.08928932 40.8176692,10.1436194 C41.1690775,10.7169981 41.38315,11.3999689 41.456264,12.1931922 L44.1884881,12.1931922 C44.1348053,10.4225515 43.5561508,9.00346408 42.4505486,7.9247068 C41.3383595,6.8472699 39.7489533,6.23659029 37.6813421,6.09002718 L37.6813421,4.03814369 L36.1946907,4.03814369 L36.1946907,6.11841553 C34.0997441,6.14152233 32.4783917,6.78554175 31.3138372,8.0597165 C30.1529054,9.33257087 29.5755683,10.7622214 29.5755683,12.3473476 C29.5755683,14.1216194 30.1156897,15.5100078 31.1906631,16.510532 C32.2656366,17.5107262 33.9357316,18.2280272 36.1933734,18.6535223 L36.1933734,27.1815806 C34.4320505,27.0350175 33.2263282,26.3741631 32.5771944,25.1937359 C32.2080016,24.5368427 31.9883303,23.494066 31.8974318,22.0644155 L29.1355669,22.0644155 C29.1355669,23.8604738 29.4359271,25.2851728 30.0247912,26.3368621 C31.1020701,28.2883961 33.1673759,29.3631922 36.1946907,29.5612505 L36.1946907,32.5981437 L37.6813421,32.5981437 L37.6813421,29.5612505 C39.5655096,29.3516388 41.0034183,28.9248233 42.0052777,28.2794835 C43.8024989,27.1106097 44.6989687,25.1399301 44.6989687,22.3628233 C44.7029209,20.4459495 44.0001043,18.9941825 42.5980939,18.0157748 L42.5980939,18.0157748 Z" id="Fill-8" fill="#6DCD62"></path>
                        <path d="M24.5717383,45.5049398 L25.5722804,48.3335417 C33.1893101,45.6333476 41.6076298,45.6039689 49.2694501,48.2536583 L50.2469381,45.4161437 C41.946523,42.5479301 32.8260455,42.5736777 24.5717383,45.5049398" id="Fill-10" fill="#6DCD62"></path>
                        <g id="Group-14" transform="translate(0.000000, 37.865767)" fill="#74C163">
                            <path d="M88.6751628,34.7321883 C78.3927654,45.4600136 62.7753515,48.5969262 62.6241833,48.6276252 L61.6941206,48.8091786 L61.4556767,49.7245379 C60.710375,52.5399359 60.8925013,55.2965767 61.2425922,58.0647709 L52.072384,58.0647709 C50.9460331,56.5849456 49.9672277,54.9443631 48.9360568,53.2189456 L48.0099461,51.6773922 L47.0772486,51.748033 C38.7369831,52.4372757 30.3492923,51.9474117 23.4736121,50.3814311 L21.8150441,50.0061107 L21.652349,51.707101 C21.4303722,54.0184408 21.5868098,56.1799165 21.798577,58.0684019 L12.5318714,58.0684019 C9.42518508,53.6124214 8.2952115,47.0038777 7.54595767,40.4920524 L7.47811314,39.9058 L7.02526742,39.5212369 C1.81474219,35.1127903 2.01103022,24.2681107 5.83238945,18.805334 L7.08817181,17.0115864 L4.96654842,16.4870621 C4.20840235,16.299567 3.74007753,15.6720524 3.5694782,14.6345573 C3.38866925,13.5699942 3.59384953,12.3370816 4.01968918,11.318732 C3.91462898,11.7868097 3.92352122,12.2354117 4.05427013,12.6635476 C4.24561803,13.2999748 4.88684758,14.3939165 6.99068647,14.5546738 L7.69482041,14.6140913 L8.18619918,14.0984796 C14.7088243,7.27009126 25.2593063,3.33995534 37.1413194,3.32840194 L37.2104813,3.32840194 C47.6621606,3.32840194 57.0866212,6.3818 61.8120251,11.308499 L62.9512203,12.4912369 L64.0222416,11.2543631 C65.6050609,9.43387767 68.4900998,6.66832427 72.0456798,5.75560583 C71.2144197,7.75863495 70.9427123,10.1977223 70.8129514,12.6328485 L70.7553165,13.6495476 L71.6801098,14.0753728 C76.8330001,16.4510816 80.7067248,20.338965 83.5235898,25.9704214 L83.8545789,26.6362272 L84.5834135,26.7738777 C85.3026972,26.9138388 86.3381495,26.8818194 87.9479749,26.8214117 C88.6353124,26.7969845 89.3690871,26.7672757 90.0656462,26.764965 C90.2260359,30.1359165 90.0682809,33.2781107 88.6751628,34.7321883 M92.9902062,25.1950233 L92.9108347,23.8799165 L91.5984054,23.7911204 C90.4773241,23.7165184 89.1062719,23.7640524 87.8491722,23.8115864 C87.1499784,23.8399748 86.3727305,23.8759553 85.8184473,23.8644019 C82.9156239,18.4131786 78.9045634,14.3556252 73.8748472,11.7957223 C74.0764047,9.00079029 74.5496696,6.37915922 76.0593749,5.12941165 L78.9635157,2.73059612 L75.209013,2.4721301 C69.8446849,2.12618835 65.451258,5.45356699 62.8356211,8.12372233 C57.3046458,3.27558641 47.6931188,0.318576699 37.2180562,0.318576699 L37.1462596,0.318576699 C26.8101794,0.332770874 17.3652997,3.16500388 10.3911462,8.22143107 L8.99671069,7.27273204 C7.26634602,6.08999417 5.35122028,5.99096505 3.73876016,7.02086796 C1.21435109,8.6366932 0.167701122,12.4050816 0.611654602,15.1204602 C0.854050568,16.5900524 1.50680709,17.7688291 2.4790257,18.5392757 C-1.16514735,25.234965 -1.07128478,36.0472951 4.64181687,41.408732 C5.47834643,48.4530039 6.82008714,55.5821107 10.5963265,60.4866932 L11.0425853,61.0666738 L25.2039768,61.0666738 L24.9872695,59.3785573 C24.7666102,57.6481883 24.5179567,55.736266 24.5499029,53.6830621 C31.0968994,54.9674699 38.7409352,55.3658971 46.4014381,54.818266 C47.555783,56.7506544 48.7450383,58.7447709 50.1892044,60.5164019 L50.638098,61.0679942 L62.9499029,61.0679942 L64.6443693,60.9187903 L64.4095482,59.2128485 C64.0531998,56.6054117 63.6876298,53.9220524 64.1556252,51.3624796 C67.8666548,50.4609845 81.4302899,46.6285573 90.8287324,36.8160913 L90.8313671,36.8160913 C93.0903263,34.4572175 93.3327222,30.6142272 92.9902062,25.1950233" id="Fill-12"></path>
                        </g>
                        <path d="M73.7646492,58.3501068 C75.1646835,58.3501068 76.2992679,59.4876214 76.2992679,60.890534 C76.2992679,62.2937767 75.1646835,63.4309612 73.7646492,63.4309612 C72.3646149,63.4309612 71.2300305,62.2937767 71.2300305,60.890534 C71.2300305,59.4876214 72.3646149,58.3501068 73.7646492,58.3501068" id="Fill-15" fill="#6DCD62"></path>
                    </g>
                </g>
            </g>
        </g>
    </g>
</svg>