<?xml version="1.0" encoding="UTF-8"?>
<svg width="77px" height="100px" viewBox="0 0 77 100" version="1.1" xmlns="http://www.w3.org/2000/svg" xmlns:xlink="http://www.w3.org/1999/xlink">
    <!-- Generator: Sketch 40.1 (33804) - http://www.bohemiancoding.com/sketch -->
    <title>Shield Icon</title>
    <desc>Created with Sketch.</desc>
    <defs>
        <polygon id="path-1" points="76.3422925 99.6045455 76.3422925 0.0581027668 0 0.0581027668 0 99.6045455"></polygon>
    </defs>
    <g id="Page-1" stroke="none" stroke-width="1" fill="none" fill-rule="evenodd">
        <g id="Landing-page" transform="translate(-981.000000, -946.000000)">
            <g id="Section-2" transform="translate(0.000000, 800.000000)">
                <g id="Column-3" transform="translate(847.000000, 146.000000)">
                    <g id="Shield-Icon" transform="translate(134.000000, 0.000000)">
                        <g id="Group-3" transform="translate(0.000000, 0.337154)">
                            <mask id="mask-2" fill="white">
                                <use xlink:href="#path-1"></use>
                            </mask>
                            <g id="Clip-2"></g>
                            <path d="M73.0231621,46.6397233 C73.0231621,62.9436759 65.7140711,78.4231225 53.4694071,88.0456522 C48.6848221,91.8061265 43.5401581,94.5511858 38.1713834,96.2124506 C32.8022134,94.5527668 27.6575494,91.8061265 22.8729644,88.0456522 C10.6283004,78.4247036 3.31920949,62.9436759 3.31920949,46.6397233 L3.31920949,16.6073123 C23.6362055,16.1559289 34.6279051,7.48438735 38.1713834,4.08557312 C41.7144664,7.48596838 52.706166,16.1559289 73.0231621,16.6073123 L73.0231621,46.6397233 Z M74.6828458,13.3061265 C50.4591304,13.3061265 39.5986561,0.804545455 39.4441107,0.623517787 C38.8132806,-0.131422925 37.5271146,-0.129841897 36.8966798,0.625098814 C36.7903557,0.751185771 26.047668,13.3045455 1.65952569,13.3045455 C0.743715415,13.3045455 -0.000158102766,14.0480237 -0.000158102766,14.9642292 L-0.000158102766,46.6381423 C-0.000158102766,63.9527668 7.78363636,80.4081028 20.821581,90.6527668 C26.0777075,94.7835968 31.7551779,97.7725296 37.6982609,99.5349802 C37.8524111,99.5816206 38.0116996,99.6045455 38.1713834,99.6045455 C38.3306719,99.6045455 38.4883794,99.5816206 38.6441107,99.5349802 C44.5871937,97.7709486 50.264664,94.7835968 55.5207905,90.6527668 C68.5587352,80.4061265 76.3425296,63.9527668 76.3425296,46.6381423 L76.3425296,14.9658103 C76.3425296,14.05 75.5990514,13.3061265 74.6828458,13.3061265 L74.6828458,13.3061265 Z" id="Fill-1" fill="#6DCD62" mask="url(#mask-2)"></path>
                        </g>
                        <path d="M63.0654545,26.0905929 L63.0654545,46.9767589 C63.0654545,60.252253 57.1788933,72.8036364 47.3172332,80.5526482 C44.3998419,82.8443478 41.3263241,84.6668775 38.1713834,85.9728063 C35.0164427,84.6652964 31.9425296,82.8443478 29.0267194,80.5526482 C19.1654545,72.8020553 13.276917,60.2506719 13.276917,46.9751779 L13.276917,26.0905929 C24.7267194,24.3961265 32.9848221,20.3716206 38.1713834,17.012332 C43.3575494,20.3716206 51.6156522,24.3961265 63.0654545,26.0905929 M37.2385771,13.6502767 C32.2346245,17.0506719 23.6911462,21.4320949 11.4081423,22.9988933 C10.578498,23.1048221 9.95754941,23.8103557 9.95754941,24.6451383 L9.95754941,46.9783399 C9.95754941,61.2629249 16.3192095,74.7901976 26.975336,83.1649012 C30.3310672,85.8020553 33.8943083,87.8696443 37.5654545,89.3103557 C37.7611067,89.3866403 37.9654545,89.4249802 38.1713834,89.4249802 C38.376917,89.4249802 38.5828458,89.3866403 38.776917,89.3103557 C42.4449012,87.8716206 46.0097233,85.8036364 49.3686166,83.1649012 C60.0235573,74.7901976 66.3848221,61.2629249 66.3848221,46.9783399 L66.3848221,24.6451383 C66.3848221,23.8103557 65.7638735,23.1048221 64.9342292,22.9988933 C52.6512253,21.4320949 44.107747,17.0506719 39.1037945,13.6502767 C38.5413439,13.2668775 37.8010277,13.2668775 37.2385771,13.6502767" id="Fill-4" fill="#6DCD62"></path>
                        <path d="M28.626917,37.0630435 C24.4281028,37.8922925 22.3249407,41.4689723 22.099249,41.866996 C20.656166,44.4128458 20.7676285,46.8954545 20.8431225,48.2029644 C21.0972727,52.5816206 23.3881818,55.5697628 24.3834387,56.8152174 C25.7158498,58.4828063 27.1186166,59.5772727 28.1229644,60.2496047 C29.6245455,61.0942688 31.6419368,62.4820158 33.4209881,64.7290514 C35.6826482,67.5859684 36.2522134,70.1800395 36.5818577,70.0709486 C36.9664427,69.9432806 36.4474704,65.6982213 34.3375889,61.8282609 C33.7605138,60.7693676 33.1103162,59.8171937 32.940751,59.5772727 C31.5324506,57.5835968 30.7099209,56.9543478 29.3660474,55.1832016 C28.825336,54.4705534 28.0502372,53.3697628 27.2458893,51.8891304 C27.2419368,51.8828063 27.2383794,51.879249 27.23917,51.8741107 C27.0352174,51.4634387 26.8660474,51.0278656 26.7360079,50.5705534 C25.596087,46.563834 27.8233597,42.3610672 31.7099209,41.1855731 C34.968419,40.2001976 38.3593281,41.6547431 40.0435178,44.5116601 C39.9826482,44.1235178 39.8980632,43.7353755 39.7881818,43.35 C38.6862055,39.4772727 33.5885771,36.0832016 28.626917,37.0630435" id="Fill-6" fill="#6DCD62"></path>
                        <path d="M40.5446245,44.5728458 C40.2861265,44.3420158 41.2027273,42.3246245 42.8497628,40.9183004 C44.3481818,39.6396443 45.9394862,39.3028854 46.9568775,39.0878656 C48.2126087,38.822253 49.8995652,38.465336 51.8406719,39.2076285 C52.1458103,39.3246245 53.642253,39.9218577 54.9371146,41.4866798 C55.216166,41.823834 56.2118182,43.0831225 56.6442292,45.0491304 C57.0707115,46.9878656 56.7133992,48.5400395 56.43,49.7111858 C55.6794071,52.8123715 53.985336,54.7811462 53.3264427,55.5289723 C52.7509486,56.182332 52.1303953,56.7072332 50.8896838,57.7574308 C50.5078656,58.0803557 49.0371146,59.3016996 46.5015415,61.0424111 C45.8355336,61.4993281 41.5821739,64.4040711 40.2090514,66.0321344 C40.2019368,66.04083 40.1703162,66.0779842 40.1327668,66.1230435 C39.9588538,66.3317391 39.7027273,66.6511067 38.3552964,68.3301581 C38.2888933,68.4127668 37.1679447,69.8092095 37.102332,69.8910277 C37.1798024,69.1333202 37.3612253,68.023834 37.8414625,66.7831225 C38.871502,64.1246245 40.5639921,62.7013043 42.8817787,60.6708696 C48.0683399,56.1277866 51.2655731,53.0297628 52.0201186,50.3902372 C52.4956126,48.7281818 52.3434387,47.023834 52.3434387,47.023834 C52.2932411,46.494585 52.2137945,45.725415 51.814585,44.8242292 C51.6770356,44.5143478 51.274664,43.6574308 50.4908696,42.97917 C48.7426482,41.4665217 46.3153755,41.9167194 45.7485771,42.0218577 C44.3632016,42.2787747 43.2185375,42.9558498 42.4193281,43.4305534 C41.1126087,44.2064427 40.6881028,44.7009091 40.5446245,44.5728458" id="Fill-8" fill="#6DCD62"></path>
                    </g>
                </g>
            </g>
        </g>
    </g>
</svg>