<?xml version="1.0" encoding="UTF-8"?>
<svg width="50px" height="40px" viewBox="0 0 50 40" version="1.1" xmlns="http://www.w3.org/2000/svg" xmlns:xlink="http://www.w3.org/1999/xlink">
    <!-- Generator: Sketch 40.1 (33804) - http://www.bohemiancoding.com/sketch -->
    <title>twitter-black-shape copy</title>
    <desc>Created with Sketch.</desc>
    <defs></defs>
    <g id="Symbols" stroke="none" stroke-width="1" fill="none" fill-rule="evenodd">
        <g id="Footer" transform="translate(-1062.000000, -50.000000)" fill="#F4F4F4">
            <g id="Group-8">
                <g id="twitter-black-shape-copy" transform="translate(1062.000000, 50.000000)">
                    <g id="Capa_1">
                        <path d="M49.724878,4.77125683 C47.7729586,5.60338798 45.8205981,6.12306011 43.8695607,6.33180328 C46.0732163,5.02131148 47.563785,3.16994536 48.3403847,0.777814208 C46.3246216,1.96327869 44.1737832,2.77431694 41.8863259,3.21136612 C39.8713346,1.08961749 37.395213,0.0283060109 34.4563073,0.0283060109 C31.6443171,0.0283060109 29.2467046,1.01103825 27.2625876,2.97693989 C25.2795733,4.94273224 24.2879559,7.31912568 24.2879559,10.1064481 C24.2879559,10.8551913 24.3717577,11.6251366 24.5398022,12.4155191 C20.384117,12.207541 16.4857913,11.1726776 12.8441637,9.31092896 C9.20275664,7.44896175 6.11234614,4.96830601 3.57293222,1.86896175 C2.64945886,3.42874317 2.18755678,5.12437158 2.18755678,6.95486339 C2.18755678,8.68142077 2.59675196,10.283388 3.41569365,11.7603279 C4.23408402,13.2370492 5.33618745,14.4330055 6.72145263,15.3484153 C5.08412057,15.2859016 3.55209205,14.8593443 2.12514652,14.0688525 L2.12514652,14.1936612 C2.12514652,16.6276503 2.89645353,18.7645902 4.43884701,20.6061202 C5.98146102,22.4474317 7.928198,23.6064481 10.2786169,24.0851366 C9.39704441,24.3136612 8.50488644,24.4280874 7.60258405,24.4280874 C7.01486906,24.4280874 6.37466771,24.3761749 5.68220052,24.2728962 C6.33276682,26.2902732 7.52914724,27.9486339 9.2709007,29.2493989 C11.012985,30.5495082 12.9858549,31.2196721 15.1896207,31.2622951 C11.4959477,34.132459 7.28799664,35.567541 2.56576736,35.567541 C1.66313418,35.567541 0.844854078,35.526776 0.110155211,35.4430601 C4.83249476,38.4590164 10.037356,39.9669945 15.7250698,39.9669945 C19.334941,39.9669945 22.7245017,39.400765 25.8926494,38.266776 C29.0623407,37.1335519 31.7694684,35.6146448 34.0153557,33.710929 C36.2605813,31.8076503 38.1971738,29.6182514 39.8234794,27.1429508 C41.4498951,24.6674317 42.6614922,22.0830601 43.459704,19.3892896 C44.2569234,16.6949727 44.6558638,13.9965027 44.6558638,11.2918033 C44.6558638,10.7092896 44.6452784,10.2726776 44.6242177,9.98131148 C46.6185893,8.54666667 48.3185522,6.80939891 49.724878,4.77125683 L49.724878,4.77125683 Z" id="Shape"></path>
                    </g>
                </g>
            </g>
        </g>
    </g>
</svg>